<svg width="18" height="21" viewBox="0 0 18 21" fill="none" xmlns="http://www.w3.org/2000/svg">
<path fill-rule="evenodd" clip-rule="evenodd" d="M12.3023 13.2144H5.69712C3.75309 13.3126 2.03077 14.5213 1.24924 16.3358C0.306598 18.2195 2.18788 20.0001 4.37582 20.0001H13.6236C15.8129 20.0001 17.6941 18.2195 16.7502 16.3358C15.9686 14.5213 14.2463 13.3126 12.3023 13.2144Z" stroke="#FEBA51" stroke-width="1.5" stroke-linecap="round" stroke-linejoin="round"/>
<path fill-rule="evenodd" clip-rule="evenodd" d="M12.9998 5.07143C12.9998 7.32002 11.209 9.14286 8.99989 9.14286C6.79081 9.14286 5 7.32002 5 5.07143C5 2.82284 6.79081 1 8.99989 1C10.0607 1 11.0781 1.42895 11.8282 2.19249C12.5784 2.95603 12.9998 3.99162 12.9998 5.07143Z" stroke="#FEBA51" stroke-width="1.5" stroke-linecap="round" stroke-linejoin="round"/>
</svg>
