<svg width="34" height="34" viewBox="0 0 34 34" fill="none" xmlns="http://www.w3.org/2000/svg">
<path fill-rule="evenodd" clip-rule="evenodd" d="M8.50367 2.28965C11.0913 0.75325 14.035 -0.0375218 17.0244 0.0013683C20.0138 0.0402584 22.9371 0.907355 25.4859 2.51052C28.0347 4.11364 30.1142 6.39312 31.5061 9.10779C32.8979 11.8224 33.5509 14.872 33.3966 17.9353C33.244 20.9652 32.7032 23.1705 31.0296 25.7483C30.8 26.102 30.3318 26.1995 29.9839 25.9659C29.6361 25.7324 29.5402 25.2564 29.7699 24.9027C31.2621 22.6042 31.7468 20.6808 31.8891 17.8568C32.0296 15.0662 31.4347 12.2887 30.1676 9.81735C28.9004 7.34604 27.0084 5.27294 24.6918 3.81584C22.3753 2.35878 19.7197 1.57144 17.0051 1.53612C14.2905 1.50081 11.6165 2.21882 9.26487 3.61509C6.9132 5.0114 4.97076 7.03454 3.64322 9.472C2.31565 11.9095 1.65249 14.6706 1.72425 17.464C1.7963 20.2687 2.42358 22.5662 3.86867 24.919C4.08947 25.2785 3.98186 25.7519 3.62831 25.9764C3.27475 26.2009 2.80914 26.0915 2.58833 25.732C0.988771 23.1278 0.29373 20.559 0.215251 17.5041C0.13648 14.4378 0.864349 11.406 2.32268 8.72841C3.78105 6.05074 5.91615 3.826 8.50367 2.28965Z" fill="#FE5351"/>
<path fill-rule="evenodd" clip-rule="evenodd" d="M20.4524 30.3786C20.0644 30.2124 19.8847 29.763 20.051 29.375C20.3001 28.7936 20.5124 28.2577 20.708 27.7639C20.7334 27.6996 20.7586 27.6361 20.7835 27.5733C20.997 27.0352 21.1979 26.5361 21.403 26.1119C21.7885 25.3145 22.3215 24.4837 23.3152 24.3343C23.8111 24.2598 24.4088 24.0826 24.9573 23.8036C25.5105 23.5222 25.9617 23.1641 26.231 22.7574C26.8113 21.8814 26.832 21.133 26.7011 19.8565C26.5839 18.7131 26.0738 17.6457 25.2577 16.8362C24.4417 16.0266 23.3702 15.5251 22.2259 15.4171C21.0815 15.309 19.9351 15.6011 18.9819 16.2435C18.0288 16.8859 17.3279 17.839 16.9986 18.9403C16.6694 20.0415 16.7322 21.2229 17.1763 22.2831C17.3394 22.6724 17.156 23.1203 16.7667 23.2834C16.3773 23.4465 15.9294 23.2631 15.7663 22.8738C15.1855 21.4874 15.1034 19.9425 15.534 18.5024C15.9645 17.0622 16.8811 15.8159 18.1275 14.9758C19.374 14.1357 20.8731 13.7538 22.3696 13.8951C23.8661 14.0365 25.2672 14.6923 26.3343 15.7509C27.4015 16.8094 28.0685 18.2053 28.2219 19.7006C28.3616 21.0628 28.3901 22.2661 27.5055 23.6016C27.0425 24.3006 26.3472 24.8117 25.6504 25.1661C24.9488 25.523 24.1929 25.7483 23.5424 25.8461C23.3895 25.8691 23.1582 25.9935 22.7793 26.7772C22.6022 27.1435 22.4209 27.5914 22.2045 28.137C22.1799 28.199 22.1549 28.2621 22.1295 28.3262C21.9344 28.819 21.7142 29.375 21.4561 29.9772C21.2898 30.3652 20.8404 30.5449 20.4524 30.3786Z" fill="#FE5351"/>
<path fill-rule="evenodd" clip-rule="evenodd" d="M11.7783 16.2101C10.7313 16.6844 9.88116 17.5072 9.37277 18.5381C8.86438 19.569 8.72918 20.7443 8.99019 21.8637C9.2512 22.9831 9.89228 23.9774 10.8042 24.6771C11.7161 25.3769 12.8424 25.7388 13.9913 25.7011C15.1401 25.6635 16.2403 25.2288 17.1045 24.4709C17.9687 23.713 18.5434 22.6789 18.7307 21.5448C18.9179 20.4107 18.7061 19.2468 18.1314 18.2513C17.9203 17.8858 18.0456 17.4183 18.4112 17.2072C18.7767 16.9961 19.2442 17.1214 19.4553 17.487C20.2068 18.7887 20.4838 20.3108 20.2389 21.7938C19.9941 23.2769 19.2426 24.6291 18.1125 25.6202C16.9824 26.6113 15.5436 27.1799 14.0413 27.229C12.539 27.2782 11.0661 26.805 9.87358 25.8899C8.68107 24.9749 7.84274 23.6747 7.50142 22.2108C7.16009 20.747 7.3369 19.2101 8.00171 17.8619C8.66652 16.5138 9.77821 15.438 11.1473 14.8176C12.5165 14.1973 14.0584 14.0708 15.5103 14.4599C15.918 14.5691 16.16 14.9882 16.0507 15.396C15.9415 15.8038 15.5224 16.0457 15.1146 15.9365C14.0043 15.639 12.8252 15.7357 11.7783 16.2101Z" fill="#FE5351"/>
<path fill-rule="evenodd" clip-rule="evenodd" d="M5.19643 27.4643C5.50273 27.203 5.98022 27.2206 6.26296 27.5038C6.97365 28.2155 8.29724 29.3067 9.91223 30.2153C11.5357 31.1286 13.377 31.8142 15.1427 31.8142C17.5605 31.8142 18.5454 31.4614 19.0354 31.0689C19.2772 30.8752 19.445 30.6355 19.6019 30.3128C19.7048 30.101 19.7801 29.9097 19.8668 29.6896C19.933 29.5216 20.0058 29.3368 20.1026 29.1132C20.2574 28.7555 20.6966 28.5814 21.0836 28.7245C21.4706 28.8677 21.6589 29.2737 21.5041 29.6314C21.4462 29.7651 21.3837 29.9218 21.3184 30.0854C21.2098 30.3572 21.0937 30.6482 20.9788 30.8846C20.77 31.3141 20.4898 31.7502 20.024 32.1234C19.0988 32.8646 17.6307 33.2095 15.1427 33.2095C12.9837 33.2095 10.8627 32.3835 9.12745 31.4072C7.38381 30.4263 5.95257 29.2501 5.15377 28.4502C4.87104 28.1671 4.89014 27.7257 5.19643 27.4643Z" fill="#FE5351"/>
</svg>
