<svg width="34" height="34" viewBox="0 0 34 34" fill="none" xmlns="http://www.w3.org/2000/svg">
<path fill-rule="evenodd" clip-rule="evenodd" d="M8.2942 2.28965C10.8818 0.75325 13.8255 -0.0375218 16.815 0.0013683C19.8044 0.0402584 22.7276 0.907355 25.2764 2.51052C27.8252 4.11364 29.9047 6.39312 31.2966 9.10779C32.6885 11.8224 33.3414 14.872 33.1871 17.9353C33.0345 20.9652 32.4937 23.1705 30.8202 25.7483C30.5905 26.102 30.1223 26.1995 29.7745 25.9659C29.4266 25.7324 29.3307 25.2564 29.5604 24.9027C31.0526 22.6042 31.5373 20.6808 31.6796 17.8568C31.8201 15.0662 31.2252 12.2887 29.9581 9.81735C28.691 7.34604 26.7989 5.27294 24.4823 3.81584C22.1658 2.35878 19.5102 1.57144 16.7956 1.53612C14.081 1.50081 11.407 2.21882 9.0554 3.61509C6.70373 5.0114 4.76129 7.03454 3.43375 9.472C2.10618 11.9095 1.44302 14.6706 1.51478 17.464C1.58683 20.2687 2.2141 22.5662 3.65919 24.919C3.88 25.2785 3.77239 25.7519 3.41883 25.9764C3.06528 26.2009 2.59967 26.0915 2.37886 25.732C0.779298 23.1278 0.0842573 20.559 0.00577804 17.5041C-0.0729927 14.4378 0.654876 11.406 2.11321 8.72841C3.57158 6.05074 5.70668 3.826 8.2942 2.28965Z" fill="#51BCFE"/>
<path fill-rule="evenodd" clip-rule="evenodd" d="M16.1283 7.28442C16.4074 7.06014 16.8018 7.06014 17.081 7.28442L26.2903 14.6839C26.4741 14.8317 26.5814 15.0566 26.5814 15.2946V26.5886H28.8837C29.1617 26.5886 29.418 26.7412 29.5536 26.9876C29.6893 27.2339 29.683 27.5354 29.5373 27.7757C28.3538 29.7277 24.1968 33.2092 16.6046 33.2092C9.01247 33.2092 4.85547 29.7277 3.67195 27.7757C3.52623 27.5354 3.51998 27.2339 3.65561 26.9876C3.79123 26.7412 4.04752 26.5886 4.32555 26.5886H6.62787V15.2946C6.62787 15.0566 6.7351 14.8317 6.91896 14.6839L16.1283 7.28442ZM8.16276 26.5886H13.1511V20.3574C13.1511 19.9273 13.4947 19.5786 13.9186 19.5786H19.2907C19.7145 19.5786 20.0581 19.9273 20.0581 20.3574V26.5886H25.0465V15.6714L16.6046 8.88854L8.16276 15.6714V26.5886ZM14.686 21.1363V27.3675C14.686 27.7977 14.3424 28.1464 13.9186 28.1464H5.99375C7.65579 29.6918 11.0742 31.6514 16.6046 31.6514C22.135 31.6514 25.5534 29.6918 27.2155 28.1464H19.2907C18.8668 28.1464 18.5232 27.7977 18.5232 27.3675V21.1363H14.686Z" fill="#51BCFE"/>
</svg>
