<svg width="34" height="33" viewBox="0 0 34 33" fill="none" xmlns="http://www.w3.org/2000/svg">
<path fill-rule="evenodd" clip-rule="evenodd" d="M8.49168 2.28389C11.1409 0.751356 14.1547 -0.0374274 17.2153 0.00136486C20.2759 0.0401571 23.2688 0.905073 25.8783 2.5042C28.4877 4.1033 30.6167 6.37705 32.0418 9.08488C33.4668 11.7927 34.1353 14.8347 33.9773 17.8902C33.8193 20.9458 32.8407 23.9027 31.1439 26.449C30.9088 26.8019 30.4294 26.8991 30.0733 26.6662C29.7171 26.4332 29.619 25.9584 29.8541 25.6056C31.3984 23.288 32.29 20.5955 32.4339 17.8119C32.5778 15.0283 31.9687 12.2578 30.6714 9.79266C29.3741 7.32757 27.437 5.25968 25.0652 3.80624C22.6936 2.35285 19.9748 1.56748 17.1955 1.53226C14.4163 1.49703 11.6786 2.21324 9.271 3.606C6.86335 4.9988 4.87466 7.01685 3.51551 9.44818C2.15633 11.8796 1.47737 14.6337 1.55084 17.4201C1.62431 20.2064 2.44745 22.9207 3.93275 25.2768C4.15881 25.6354 4.04864 26.1076 3.68667 26.3316C3.3247 26.5555 2.848 26.4464 2.62193 26.0878C0.990095 23.4993 0.0865619 20.5186 0.00591561 17.46C-0.0747306 14.4015 0.670469 11.3773 2.16353 8.70646C3.65662 6.03552 5.84255 3.81638 8.49168 2.28389Z" fill="#51BCFE"/>
<path fill-rule="evenodd" clip-rule="evenodd" d="M27.2667 28.5529C26.8742 28.7239 26.4201 28.538 26.2525 28.1378L25.3185 25.908C25.1718 25.5577 25.2917 25.1506 25.6033 24.9408L26.7681 24.1566L25.5484 22.0241L23.9891 22.7034C23.7376 22.8129 23.448 22.7787 23.2277 22.6134L19.759 20.0112C19.4879 19.8078 19.3771 19.449 19.4849 19.1239L20.0589 17.3935L17.4497 15.8572L16.2672 17.2294C16.0701 17.4581 15.7614 17.5506 15.4743 17.4668L11.7041 16.367C11.4431 16.2908 11.2405 16.0806 11.1702 15.8133L10.6181 13.7121L8.57897 13.5872L7.99109 15.3595C7.85433 15.7717 7.41575 15.9929 7.01149 15.8534C6.60723 15.714 6.39037 15.2667 6.52713 14.8544L7.30414 12.5121C7.41581 12.1754 7.73459 11.9567 8.08242 11.978L11.2667 12.1729C11.5987 12.1932 11.8807 12.4279 11.9668 12.7555L12.5498 14.9744L15.4292 15.8144L16.707 14.3315C16.9502 14.0494 17.3548 13.9815 17.6738 14.1693L21.3803 16.3516C21.6993 16.5394 21.8439 16.9307 21.7259 17.2865L21.1299 19.0831L23.7879 21.0772L25.5686 20.3015C25.927 20.1454 26.3432 20.2858 26.5396 20.6291L28.4713 24.0064C28.678 24.3677 28.5719 24.8306 28.2296 25.0611L26.9931 25.8937L27.6737 27.5187C27.8414 27.9189 27.6591 28.382 27.2667 28.5529Z" fill="#51BCFE"/>
<path fill-rule="evenodd" clip-rule="evenodd" d="M4.81791 27.0734C5.0928 26.7405 5.58028 26.6979 5.90672 26.9782C9.46154 30.031 13.154 31.4227 16.6621 31.424C20.1701 31.4253 23.5681 30.0365 26.5371 27.3924C26.8585 27.1062 27.3467 27.1399 27.6274 27.4677C27.9081 27.7955 27.8751 28.2933 27.5536 28.5796C24.3408 31.4407 20.591 33.0015 16.6615 33.0001C12.7321 32.9986 8.69732 31.4352 4.91123 28.1838C4.5848 27.9034 4.54301 27.4063 4.81791 27.0734Z" fill="#51BCFE"/>
</svg>
