<svg width="18" height="19" viewBox="0 0 18 19" fill="none" xmlns="http://www.w3.org/2000/svg">
<path d="M16.2504 5.88183C16.2633 6.29584 16.6094 6.62096 17.0235 6.608C17.4375 6.59505 17.7626 6.24893 17.7496 5.83492L16.2504 5.88183ZM12.4283 1.00287V1.75287C12.4378 1.75287 12.4473 1.75269 12.4568 1.75232L12.4283 1.00287ZM5.57173 1.00287L5.54323 1.75232C5.55273 1.75269 5.56223 1.75287 5.57173 1.75287V1.00287ZM0.250367 5.83492C0.237412 6.24893 0.562533 6.59505 0.976543 6.608C1.39055 6.62096 1.73668 6.29584 1.74963 5.88183L0.250367 5.83492ZM17.75 5.85829C17.75 5.44408 17.4142 5.10829 17 5.10829C16.5858 5.10829 16.25 5.44408 16.25 5.85829H17.75ZM17 13.1415L17.7496 13.165C17.7499 13.1572 17.75 13.1494 17.75 13.1415H17ZM12.4283 17.9971L12.4568 17.2476C12.4473 17.2472 12.4378 17.2471 12.4283 17.2471V17.9971ZM5.57173 17.9971V17.2471C5.56223 17.2471 5.55273 17.2472 5.54323 17.2476L5.57173 17.9971ZM1 13.1415H0.25C0.25 13.1494 0.250122 13.1572 0.250367 13.165L1 13.1415ZM1.75 5.85829C1.75 5.44408 1.41421 5.10829 1 5.10829C0.585786 5.10829 0.25 5.44408 0.25 5.85829H1.75ZM17.4152 6.48287C17.7602 6.25356 17.8539 5.78803 17.6246 5.44308C17.3953 5.09814 16.9297 5.0044 16.5848 5.23371L17.4152 6.48287ZM11.3851 9.59096L10.9698 8.96635L10.9635 8.97066L11.3851 9.59096ZM6.61493 9.59096L7.03653 8.97062L7.03014 8.96638L6.61493 9.59096ZM1.41521 5.23371C1.07026 5.0044 0.60473 5.09814 0.375418 5.44308C0.146105 5.78803 0.239846 6.25356 0.584793 6.48287L1.41521 5.23371ZM17.7496 5.83492C17.6527 2.73751 15.3441 0.141418 12.3998 0.253408L12.4568 1.75232C14.3917 1.67873 16.1736 3.42697 16.2504 5.88183L17.7496 5.83492ZM12.4283 0.252866H5.57173V1.75287H12.4283V0.252866ZM5.60024 0.253408C2.65592 0.141418 0.347287 2.73751 0.250367 5.83492L1.74963 5.88183C1.82645 3.42697 3.60826 1.67873 5.54323 1.75232L5.60024 0.253408ZM16.25 5.85829V13.1415H17.75V5.85829H16.25ZM16.2504 13.1181C16.1736 15.5729 14.3917 17.3212 12.4568 17.2476L12.3998 18.7465C15.3441 18.8585 17.6527 16.2624 17.7496 13.165L16.2504 13.1181ZM12.4283 17.2471H5.57173V18.7471H12.4283V17.2471ZM5.54323 17.2476C3.60826 17.3212 1.82645 15.5729 1.74963 13.1181L0.250367 13.165C0.347287 16.2624 2.65592 18.8585 5.60024 18.7465L5.54323 17.2476ZM1.75 13.1415V5.85829H0.25V13.1415H1.75ZM16.5848 5.23371L10.9699 8.96638L11.8003 10.2155L17.4152 6.48287L16.5848 5.23371ZM10.9635 8.97066C9.74891 9.79611 8.25109 9.79611 7.0365 8.97066L6.19336 10.2113C7.91684 11.3826 10.0832 11.3826 11.8066 10.2113L10.9635 8.97066ZM7.03014 8.96638L1.41521 5.23371L0.584793 6.48287L6.19973 10.2155L7.03014 8.96638Z" fill="#FEBA51"/>
</svg>
