<svg width="36" height="33" viewBox="0 0 36 33" fill="none" xmlns="http://www.w3.org/2000/svg">
<path d="M9.66485 19.9696L9.66501 19.9694L15.435 13.6683L15.435 13.6682C17.3924 11.5294 20.56 10.9817 23.1396 12.3412C25.7191 13.7006 27.0218 16.6041 26.3123 19.4005L26.3122 19.4008L24.2273 27.643C24.0673 28.2695 23.6354 28.7772 23.0364 29.0402C22.4376 29.303 21.7632 29.2786 21.1835 28.9731L18.7258 27.6779L18.4342 27.5242L18.2306 27.7842C17.331 28.9337 15.6939 29.3148 14.3517 28.6075C13.0093 27.9 12.4174 26.3439 12.8848 24.9675L12.9907 24.6555L12.6988 24.5016L10.2411 23.2064C9.66131 22.9009 9.26543 22.3612 9.1532 21.7237L9.15296 21.7224C9.03869 21.0864 9.22574 20.4486 9.66485 19.9696ZM13.7373 25.0489L13.2899 24.8132L13.1703 25.3032C12.888 26.4596 13.4139 27.7024 14.5228 28.2868C15.6317 28.8712 16.9703 28.611 17.7844 27.7341L18.1287 27.3632L17.6822 27.1279L13.7373 25.0489ZM22.8787 28.7076L22.8811 28.7065C23.3718 28.4888 23.7328 28.0693 23.864 27.549L25.9524 19.3082C26.6215 16.6721 25.3909 13.9385 22.9668 12.6609C20.5426 11.3834 17.5582 11.8956 15.7131 13.9119C15.7131 13.912 15.713 13.912 15.713 13.9121L9.94343 20.2128L10.2329 20.4736L9.94314 20.2131L9.94322 20.213C9.57996 20.609 9.42339 21.1398 9.51733 21.6661C9.61095 22.1906 9.93786 22.6358 10.4122 22.8858L21.3546 28.6524C21.8289 28.9024 22.3854 28.9227 22.8787 28.7076Z" fill="#51BCFE" stroke="#51BCFE" stroke-width="0.78125"/>
<path fill-rule="evenodd" clip-rule="evenodd" d="M8.99119 2.39026C11.7962 0.78635 14.9874 -0.0391706 18.228 0.00142843C21.4686 0.0420274 24.6375 0.947225 27.4005 2.62083C30.1635 4.2944 32.4177 6.67405 33.9266 9.508C35.4354 12.3419 36.1432 15.5256 35.976 18.7234C35.8087 21.9213 34.7725 25.0159 32.9759 27.6809C32.7269 28.0501 32.2194 28.1519 31.8423 27.9081C31.4652 27.6643 31.3613 27.1674 31.6102 26.7981C33.2454 24.3726 34.1894 21.5547 34.3417 18.6415C34.4941 15.7282 33.8492 12.8287 32.4756 10.2487C31.102 7.66884 29.0509 5.50464 26.5397 3.98351C24.0285 2.46243 21.1498 1.64049 18.207 1.60362C15.2643 1.56675 12.3656 2.31631 9.81635 3.77394C7.26707 5.23161 5.1614 7.34365 3.7223 9.88822C2.28317 12.4328 1.56428 15.3153 1.64207 18.2314C1.71986 21.1475 2.59141 23.9882 4.16409 26.454C4.40345 26.8293 4.2868 27.3235 3.90353 27.5579C3.52027 27.7923 3.01553 27.6781 2.77617 27.3028C1.04834 24.5937 0.0916538 21.4743 0.00626359 18.2732C-0.0791265 15.0722 0.709908 11.9072 2.29079 9.11195C3.87171 6.31662 6.18623 3.99412 8.99119 2.39026Z" fill="#51BCFE"/>
</svg>
