<svg width="52" height="52" viewBox="0 0 52 52" fill="none" xmlns="http://www.w3.org/2000/svg">
<path d="M52 26C52 40.3594 40.3594 52 26 52C11.6406 52 0 40.3594 0 26C0 11.6406 11.6406 0 26 0C40.3594 0 52 11.6406 52 26Z" fill="#FE5351"/>
<path d="M24 14C24 12.8954 24.8954 12 26 12C27.1046 12 28 12.8954 28 14V38C28 39.1046 27.1046 40 26 40C24.8954 40 24 39.1046 24 38V14Z" fill="#333333"/>
<path d="M14 28C12.8954 28 12 27.1046 12 26C12 24.8954 12.8954 24 14 24H38C39.1046 24 40 24.8954 40 26C40 27.1046 39.1046 28 38 28H14Z" fill="#333333"/>
</svg>
