<svg width="36" height="35" viewBox="0 0 36 35" fill="none" xmlns="http://www.w3.org/2000/svg">
<path fill-rule="evenodd" clip-rule="evenodd" d="M9.40488 2.32533C12.0849 0.76499 15.1338 -0.0381066 18.2299 0.00138963C21.3261 0.0408858 24.3538 0.921496 26.9936 2.54964C29.6334 4.17775 31.7872 6.49276 33.2288 9.24973C34.6704 12.0066 35.3466 15.1038 35.1868 18.2148C35.027 21.3259 34.037 24.3364 32.3205 26.929C32.0826 27.2882 31.5977 27.3872 31.2374 27.15C30.8771 26.9129 30.7778 26.4294 31.0157 26.0702C32.578 23.7106 33.4799 20.9692 33.6255 18.1351C33.771 15.301 33.1549 12.4802 31.8425 9.97035C30.5301 7.46053 28.5705 5.35512 26.1712 3.87531C23.7719 2.39555 21.0215 1.59593 18.2099 1.56006C15.3984 1.5242 12.6288 2.2534 10.1933 3.67143C7.75761 5.0895 5.74579 7.14417 4.37084 9.61962C2.99585 12.0951 2.30901 14.8993 2.38333 17.7362C2.45765 20.5731 3.29036 23.3366 4.79293 25.7354C5.02163 26.1005 4.91017 26.5813 4.54399 26.8094C4.17781 27.0374 3.69557 26.9262 3.46688 26.5612C1.81606 23.9257 0.902022 20.891 0.820438 17.7769C0.738854 14.6628 1.49272 11.5838 3.00314 8.86444C4.51359 6.14504 6.72494 3.88563 9.40488 2.32533Z" fill="#FE5351"/>
<path fill-rule="evenodd" clip-rule="evenodd" d="M17.419 18.7394C19.8208 18.7394 21.7678 16.9871 21.7678 14.8255C21.7678 12.6639 19.8208 10.9115 17.419 10.9115C15.0172 10.9115 13.0702 12.6639 13.0702 14.8255C13.0702 16.9871 15.0172 18.7394 17.419 18.7394ZM17.419 20.1627C20.6942 20.1627 23.3492 17.7731 23.3492 14.8255C23.3492 11.8778 20.6942 9.48828 17.419 9.48828C14.1438 9.48828 11.4888 11.8778 11.4888 14.8255C11.4888 17.7731 14.1438 20.1627 17.419 20.1627Z" fill="#FE5351"/>
<path fill-rule="evenodd" clip-rule="evenodd" d="M25.3808 25.8892C23.5869 24.8975 21.0887 24.065 17.4358 24.0655C12.5188 24.0663 8.96546 27.0119 7.28466 28.4264C8.56472 30.1224 11.8938 32.8652 17.4357 32.8652C22.9982 32.8652 26.9781 30.0998 28.6733 28.3476C28.6415 28.3193 28.6095 28.2907 28.5772 28.262C27.7567 27.531 26.786 26.666 25.3808 25.8892ZM29.5894 27.1501C29.811 27.348 30.0106 27.5262 30.1906 27.6766C30.3438 27.8046 30.4414 27.9914 30.4617 28.1952C30.4819 28.399 30.423 28.6027 30.2983 28.7608C28.7725 30.6942 24.1435 34.3956 17.4357 34.3956C10.7131 34.3956 6.81535 30.6754 5.66291 28.6676C5.47108 28.3333 5.55035 27.9019 5.84702 27.6656C5.96701 27.57 6.11654 27.4432 6.29453 27.2923C7.91659 25.9165 11.9024 22.536 17.4356 22.5352C21.3184 22.5346 24.0531 23.4238 26.0661 24.5366C27.6309 25.4017 28.7633 26.4126 29.5894 27.1501Z" fill="#FE5351"/>
</svg>
