<svg width="35" height="33" viewBox="0 0 35 33" fill="none" xmlns="http://www.w3.org/2000/svg">
<path fill-rule="evenodd" clip-rule="evenodd" d="M9.00888 2.27522C11.6889 0.748503 14.7378 -0.0372853 17.8339 0.00135968C20.9301 0.0400046 23.9578 0.901636 26.5976 2.49469C29.2374 4.08771 31.3912 6.35283 32.8328 9.05038C34.2744 11.7479 34.9506 14.7783 34.7908 17.8223C34.6328 20.833 34.0727 23.0245 32.3393 25.586C32.1015 25.9375 31.6166 26.0343 31.2563 25.8023C30.896 25.5703 30.7967 25.0972 31.0346 24.7457C32.5801 22.4618 33.0821 20.5505 33.2295 17.7443C33.375 14.9713 32.7589 12.2113 31.4465 9.75547C30.1341 7.29974 28.1745 5.2397 25.7752 3.79179C23.3759 2.34392 20.6255 1.56153 17.8139 1.52644C15.0024 1.49135 12.2328 2.20483 9.79726 3.5923C7.36161 4.97982 5.34979 6.9902 3.97484 9.4123C2.59986 11.8345 1.91301 14.5781 1.98733 17.3539C2.06196 20.141 2.71164 22.424 4.20834 24.7619C4.43703 25.1191 4.32557 25.5896 3.95939 25.8127C3.59321 26.0358 3.11097 25.9271 2.88228 25.5698C1.22559 22.982 0.505724 20.4294 0.424441 17.3937C0.342857 14.3468 1.09672 11.3341 2.60714 8.6734C4.11759 6.0126 6.32894 3.80189 9.00888 2.27522Z" fill="#FE5351"/>
<path fill-rule="evenodd" clip-rule="evenodd" d="M4.59154 24.5415C4.49413 24.9157 4.37016 25.3083 4.18766 25.5871C3.96298 25.9303 3.49462 26.0314 3.14156 25.813C2.78849 25.5946 2.68441 25.1393 2.90909 24.7961C2.94759 24.7373 3.02491 24.5544 3.12235 24.1801C3.21329 23.8307 3.3038 23.39 3.40109 22.877C3.44971 22.6206 3.49983 22.3471 3.55213 22.0615C3.70579 21.2227 3.87835 20.2806 4.08748 19.3687C4.36659 18.1516 4.72692 16.9102 5.23906 15.959C5.73341 15.0409 6.5114 14.1426 7.71599 14.1426C8.34608 14.1426 8.89202 14.322 9.33802 14.6652C9.77158 14.9989 10.0631 15.4504 10.2666 15.9243C10.6642 16.8504 10.7971 18.0412 10.8825 19.1342C10.9045 19.4148 10.9233 19.6896 10.9417 19.9569C10.9986 20.7853 11.0507 21.5429 11.1733 22.1837C11.2532 22.601 11.3532 22.9065 11.4694 23.1125C11.5798 23.3081 11.6758 23.3657 11.7444 23.3879C12.3232 23.5755 12.6994 23.5352 12.9615 23.4254C13.2367 23.3101 13.5009 23.07 13.7547 22.6563C14.2674 21.8208 14.5716 20.5734 14.9019 19.2188C14.9129 19.1736 14.924 19.1282 14.9351 19.0827C15.0999 18.4074 15.2732 17.7157 15.4862 17.1061C15.6955 16.507 15.9684 15.9092 16.3723 15.4666C16.807 14.9902 17.4034 14.6883 18.1554 14.7582C18.8438 14.8222 19.5584 15.1902 20.3133 15.7773C21.1277 16.4107 21.863 17.0102 22.5008 17.5303C22.907 17.8615 23.2737 18.1605 23.5962 18.4156C24.4755 19.111 25.0891 19.531 25.6009 19.7282C26.0508 19.9015 26.4007 19.8958 26.8234 19.6977C27.3083 19.4703 27.9066 18.9789 28.7486 18.0694C29.0286 17.7671 29.5077 17.7425 29.8187 18.0147C30.1298 18.2868 30.155 18.7526 29.8751 19.055C29.0121 19.987 28.2489 20.6649 27.4817 21.0246C26.6522 21.4135 25.8596 21.4124 25.0426 21.0978C24.2874 20.8069 23.5098 20.2464 22.6398 19.5584C22.2719 19.2674 21.8934 18.9585 21.4842 18.6245C20.87 18.1232 20.1867 17.5655 19.3666 16.9277C18.7007 16.4099 18.2669 16.2485 18.0111 16.2247C17.8189 16.2068 17.6752 16.2588 17.5061 16.4442C17.3062 16.6633 17.1114 17.0352 16.9212 17.5798C16.7346 18.1139 16.5763 18.74 16.4096 19.4228C16.3903 19.5019 16.3709 19.5818 16.3513 19.6626C16.0459 20.9204 15.6932 22.3729 15.0563 23.411C14.7063 23.9813 14.2304 24.498 13.5614 24.7783C12.8793 25.0641 12.107 25.0583 11.2651 24.7855C10.7309 24.6124 10.3748 24.2358 10.1407 23.8211C9.91251 23.4167 9.77573 22.9357 9.68337 22.4532C9.54282 21.7188 9.48248 20.8363 9.42443 19.9872C9.40723 19.7355 9.39022 19.4868 9.37139 19.2458C9.28458 18.1346 9.15922 17.17 8.86801 16.4917C8.72707 16.1635 8.56653 15.9505 8.39734 15.8203C8.24059 15.6997 8.03309 15.6158 7.71599 15.6158C7.40509 15.6158 7.01488 15.8377 6.58177 16.6422C6.16646 17.4135 5.84008 18.497 5.56667 19.6893C5.36531 20.5673 5.20142 21.4619 5.0491 22.2933C4.9955 22.5859 4.94334 22.8707 4.89147 23.1441C4.79341 23.6612 4.69547 24.1422 4.59154 24.5415Z" fill="#FE5351"/>
<path fill-rule="evenodd" clip-rule="evenodd" d="M29.7384 27.2175C30.0801 27.418 30.1724 27.8246 29.9446 28.1254C29.1067 29.2323 27.4452 30.4434 25.3487 31.375C23.2368 32.3135 20.6134 33.0003 17.8019 33.0003C14.9665 33.0003 12.2446 32.1647 10.0617 31.167C7.88354 30.1715 6.17353 28.9827 5.35977 28.2064C5.08126 27.9406 5.10007 27.5264 5.4018 27.2811C5.70352 27.0359 6.1739 27.0524 6.45241 27.3181C7.12563 27.9604 8.68697 29.0633 10.7467 30.0047C12.8017 30.944 15.2842 31.6908 17.8019 31.6908C20.3436 31.6908 22.7388 31.068 24.6788 30.2059C26.6343 29.337 28.0583 28.2564 28.7074 27.3991C28.9352 27.0982 29.3968 27.0169 29.7384 27.2175Z" fill="#FE5351"/>
</svg>
