<svg width="18" height="21" viewBox="0 0 18 21" fill="none" xmlns="http://www.w3.org/2000/svg">
<path fill-rule="evenodd" clip-rule="evenodd" d="M12.0761 20H5.9239C3.15905 19.9561 0.955325 17.83 1.00069 15.25V10.5C0.97548 8.36424 2.48871 6.47821 4.69201 5.89929V5.275C4.61857 2.98517 6.54617 1.07234 9 1C11.4538 1.07234 13.3814 2.98517 13.308 5.275V5.89929C15.5113 6.47821 17.0245 8.36424 16.9993 10.5V15.25C17.0447 17.83 14.8409 19.9561 12.0761 20Z" stroke="#FEBA51" stroke-width="1.5" stroke-linecap="round" stroke-linejoin="round"/>
<path d="M8.62907 15.6571C8.62907 16.0713 8.96485 16.4071 9.37907 16.4071C9.79328 16.4071 10.1291 16.0713 10.1291 15.6571H8.62907ZM10.1291 13.2821C10.1291 12.8679 9.79328 12.5321 9.37907 12.5321C8.96485 12.5321 8.62907 12.8679 8.62907 13.2821H10.1291ZM13.5064 7.03447C13.9085 7.13408 14.3152 6.8889 14.4148 6.48684C14.5144 6.08478 14.2692 5.6781 13.8672 5.57849L13.5064 7.03447ZM12.4564 6.1572V6.9072L12.457 6.9072L12.4564 6.1572ZM6.30271 6.1572L6.30206 6.9072H6.30271V6.1572ZM4.89191 5.57849C4.48985 5.6781 4.24467 6.08478 4.34427 6.48684C4.44388 6.8889 4.85056 7.13408 5.25262 7.03447L4.89191 5.57849ZM10.1291 15.6571V13.2821H8.62907V15.6571H10.1291ZM13.8672 5.57849C13.4062 5.4643 12.9318 5.40679 12.4557 5.4072L12.457 6.9072C12.8116 6.90689 13.1645 6.94975 13.5064 7.03447L13.8672 5.57849ZM12.4564 5.4072H6.30271V6.9072H12.4564V5.4072ZM6.30335 5.4072C5.82725 5.40679 5.35283 5.4643 4.89191 5.57849L5.25262 7.03447C5.5946 6.94975 5.94744 6.90689 6.30206 6.9072L6.30335 5.4072Z" fill="#FEBA51"/>
</svg>
