<svg width="140" height="143" viewBox="0 0 140 143" fill="none" xmlns="http://www.w3.org/2000/svg">
<path d="M78.1472 1.49907C85.9288 3.68759 90.9146 11.367 97.9009 15.5584C105.133 19.897 113.629 21.3964 120.215 26.7374C127.896 32.9656 137.927 39.194 139.415 49.2221C140.912 59.3187 139.557 66.14 135.11 73.6031C139.557 66.14 130.815 80.8091 135.11 73.6031C130.662 81.0662 120.215 83.9 120.215 98.309C120.215 108.674 120.239 107.574 104.199 127.133C92.8022 141.03 69.2998 146.691 53.7246 140.515C46.0294 133.885 44.3694 121.644 37.8625 113.75C32.139 106.807 16.5504 105.377 10.9683 98.309C4.89346 90.6177 1.47529 69.8087 0.516114 59.8938C-0.473417 49.6651 -0.737338 37.1413 6.35606 30.0033C14.2041 22.1059 28.2825 27.7468 37.8625 22.3126C45.0521 18.2344 46.391 6.92305 53.7246 3.13407C61.1153 -0.684423 70.1839 -0.74057 78.1472 1.49907Z" fill="#51BCFE"/>
</svg>
