<?xml version="1.0" encoding="UTF-8"?><svg id="Layer_2" xmlns="http://www.w3.org/2000/svg" xmlns:xlink="http://www.w3.org/1999/xlink" viewBox="0 0 4080 2567.6"><defs><style>.cls-1{fill:url(#linear-gradient-5);}.cls-2{fill:url(#linear-gradient-4);}.cls-3{fill:url(#linear-gradient-3);}.cls-4{fill:url(#linear-gradient-2);}.cls-5{fill:url(#linear-gradient);}.cls-6{fill:#f7941d;}</style><linearGradient id="linear-gradient" x1="3415.7" y1="1926.3" x2="3417" y2="1926.3" gradientUnits="userSpaceOnUse"><stop offset="0" stop-color="#64b8e7"/><stop offset=".5" stop-color="#f05254"/><stop offset="1" stop-color="#fdb951"/></linearGradient><linearGradient id="linear-gradient-2" x1="2318.6" y1="2046.5" x2="2318.9" y2="2046.5" xlink:href="#linear-gradient"/><linearGradient id="linear-gradient-3" x1="0" y1="1283.8" x2="4080" y2="1283.8" xlink:href="#linear-gradient"/><linearGradient id="linear-gradient-4" x1="2324" y1="2056.1" x2="2324" y2="2056.1" xlink:href="#linear-gradient"/><linearGradient id="linear-gradient-5" x1="3360.3" y1="1432.2" x2="3362.6" y2="1432.2" xlink:href="#linear-gradient"/></defs><path class="cls-5" d="M3416.4,1926.8c.2.2.4.3.5.5-.4-.7-.8-1.6-1.3-2,.1.2.2.5.3.7.2.3.3.6.4.8Z"/><path class="cls-4" d="M2318.9,2046.8c0-.2-.2-.4-.3-.6,0,0,0,0,0,0,0,.2.2.3.3.5Z"/><path class="cls-3" d="M4060.1,1721c-13.4-3.7-31.4,4.6-34.1,19.3-2,10.7-5.1,21.2-8.5,31.5-1.5,4.6-3.1,9.2-4.8,13.7-1,2.8-2.2,5.5-3.2,8.3,0,0,0,0,0,0-.7,1.5-1.3,3.1-2,4.6-5.6,12.5-12.1,24.7-19.3,36.4-3.9,6.2-8,12.2-12.3,18.1-.4.5-1.3,1.7-1.8,2.4-.6.8-1.2,1.5-1.9,2.3-3.1,3.7-6.3,7.4-9.6,10.9-5.1,5.4-10.4,10.6-16,15.5-1.9,1.7-3.8,3.3-5.8,4.9-.2.2-.9.7-1.4,1.1-3.5,2.6-7.1,5.1-10.7,7.5-16.6,10.8-27.3,15.5-44.5,20.5-4.8,1.4-9.6,2.6-14.4,3.6-2,.4-4,.7-6,1.2-.6.1-1,.2-1.4.3-.2,0-.4,0-.6,0-3.2,0-6.4.3-9.7.1-1.1,0-2.3-.1-3.4-.2-.7,0-2.1-.3-3.4-.6-3.7-.9-7.4-1.8-11-3-1.4-.5-6-2.4-6.1-2.3-7.9-3.7-15.4-8.1-22.6-13-10.9-7.5-25.4-21-37.3-34.1-28.6-31.7-52.1-71.6-69.9-112.1-8.3-19-15.3-38.6-21-58.7,20.9-6.2,41.2-14.4,60.9-23.6,43.9-20.5,84.3-48.1,121-79.7,33.8-29.2,64.5-62.9,88.7-100.6,20-31.2,36-66.7,38.3-104.2,2.5-40.3-11.7-85.8-43.4-112.2-32.6-27.2-74.4-32.9-115.3-26.3-82.4,13.4-152.7,79.1-186.5,153.1-36.2,79-43.2,170.6-28.6,256.2-24.5,13.3-43.1,36-59.1,58.2-18.2,25.3-33.3,52.7-48.1,80.1-14.3,26.5-28,53.4-43.6,79.3-3.3,5.6-6.8,11.1-10.3,16.5-1.6,2.4-3.2,4.8-4.9,7.2-1.2,1.7-8.5,11-3.3,4.6-3.2,3.8-6.3,7.7-9.7,11.2-1.8,1.8-3.6,3.5-5.4,5.2-.4.4-.9.8-1.4,1.2,0,0,0,0,0,0-1.6.9-3.3,2-4.9,3,0,0,0,0,0,0-.2,0-.7.2-1.1.4-.4,0-.9,0-1.3,0,0,0,0,0,0,0-.8-.5-1.5-.9-1.7-1-.1,0-.2-.1-.4-.2,0,0-.1-.1-.2-.2,0,0,0,0,0,0-.1,0-.3-.2-.4-.2,0-.1-.1-.2-.2-.4-.6-.6-1.2-1.2-1.4-1.5,0,0,0-.2,0-.3.2-.1.4,0,.7.3-.4-.8-.7-1.6-1.2-2.3-.5-2-1.2-4-1.8-6-.4-1.8-.8-3.6-1.2-5.4,0-.1-.1-.5-.2-.9-.3-4.7-.9-9.3-1-14-.8-24.1,1.7-48.3,4.7-72.2.1-1.1.7-5,.9-6.8.3-1.9.8-5.9,1-6.8,1.1-7.6,2.2-15.3,3.4-22.9,2.3-14.8,4.7-29.6,7-44.4,10.1-62.6,20.8-125.7,22.1-189.2,1.1-52.2-4-110.8-39.3-152.1-30-35-79.1-46.3-120.7-27.4-38.1,17.3-65.5,54.9-86.8,89.4-20.6,33.5-37.5,69.3-52.5,105.8,3.2-19.5,6.4-39.1,9.6-58.6,4.3-26.3,8.6-52.6,12.9-78.9,2.4-14.7-3.8-29.8-19.3-34.1-15.2-4.2-29.1,5.2-34.1,19.3-17.9,51.6-37.6,102.7-57.8,153.4-9.4,23.6-19,47-28.8,70.4,0,.2-.2.4-.3.7-.5,1.2-1,2.4-1.5,3.5-1.2,2.9-2.5,5.8-3.7,8.7-2.8,6.6-5.7,13.2-8.6,19.9-5.5,12.7-11.1,25.3-16.8,37.9-22.3,49.5-45.8,98.5-71.8,146.2-12.1,22.1-24.7,43.9-38.3,65.2-6.2,9.7-12.5,19.2-19.2,28.6-2.9,4.1-5.9,8.3-9,12.3-1.2,1.5-6.1,7.7-1.3,1.7-1.9,2.3-3.7,4.7-5.6,7-11.2,13.7-23.9,24.9-36.3,37.2-1.4,1-2.8,2-4.2,2.9-3,2-6.1,3.9-9.4,5.5-.9.5-2.1.9-3.1,1.4-2.4.7-4.8,1.3-7.2,2-1.7,0-3.4.2-5,.2-.3,0-.7,0-1.3,0-1-.2-2.1-.4-2.6-.5-.5,0-.8-.2-1.1-.2-.7-.4-1.2-.8-1.4-.9-.5-.2-.9-.4-1.2-.6-.8-.8-1.5-1.7-1.8-2-.3-.3-.5-.5-.7-.7-.6-1-1.3-2-1.4-2.2-.9-1.4-1.6-2.9-2.5-4.4-.3-.5-.5-1-.7-1.5-2.3-8-4.9-15.7-6.3-24.1-.4-2.2-.8-9.4-.2-1.1-.2-2.4-.5-4.7-.8-7.1-.5-5.3-.8-10.6-1-16-.4-11.8-.2-23.6.3-35.4.6-13.1,1.7-26.2,3.1-39.3.7-6.5,1.4-13.1,2.3-19.6.2-1.7.4-3.3.6-5,0,0,0,0,0-.1,0,0,0,0,0,0,.5-3.8,1.1-7.6,1.6-11.5,17.1-115.6,48-228.5,73.9-342.3,2.4-10.4,4.7-20.8,6.8-31.2,3-14.6-4.3-29.9-19.3-34.1-13.9-3.8-30.8,4.7-34.1,19.3-3.3,14.9-8.4,29.4-13.8,43.7-1.6,4.3-3.3,8.5-5,12.7-.7,1.7-1.4,3.3-2.1,5-.6,1.4-1.2,2.8-1.8,4.2-4.4,10-8.9,20-13.6,29.9-22.3,47.1-47.4,92.8-73.9,137.6-29.9,50.6-61.9,100-96,147.9-8.6,12-17.3,23.9-26.1,35.7-2.3,3-4.5,6-6.8,9-.6.8-3,3.9-3.9,5-4.3,5.5-8.6,11-13,16.5-17,21.3-34.7,42.1-53.3,62-16.3,17.6-33.3,34.5-51.5,50.2-4.1,3.5-8.2,7-12.3,10.3-1.1.9-2.3,1.8-3.5,2.7,1.1-.9-3.9,3-5.2,3.9-7.8,5.7-15.9,11.1-24.3,16-3.7,2.2-7.5,4.2-11.4,6.2-1.7.9-3.5,1.7-5.3,2.5-.3.1-.5.3-.7.4-.1,0-.3,0-.4.2-7,2.5-13.9,4.4-21.1,6.1-1.3,0-2.6.2-3.9.3-2.9.1-6.1-.5-9-.4-1.3-.4-2.7-.6-4-1-1.1-.3-2.3-.9-3.4-1.2,0,0-.1,0-.1,0-2.3-1.4-4.9-3.5-7.4-4.7-1.3-1.3-2.8-2.6-4.1-4-.9-.9-1.7-2.1-2.6-3.1,1.3,1.4,1.9,3.2,0,0-.2-.2-.4-.4-.6-.6.2.2.4.4.6.6-.1-.2-.2-.4-.3-.6-1.7-2.9-3.2-5.8-4.7-8.8,1.4,2.7.9,2.9-.3-.5-.2-.3-.3-.6-.4-.8.2.3.3.5.4.8,0-.1,0-.2-.1-.3-.6-1.7-1.2-3.4-1.7-5.2-1.2-4.1-2.1-8.2-2.9-12.4-.1-.6-.2-1.2-.3-1.9-.1-1.7-.4-3.4-.6-5-.4-5.1-.6-10.2-.6-15.3,0-10,.6-20,1.6-29.9.2-2.5.5-5,.8-7.5.1-.9.2-1.6.2-2,0-.3.1-.7.2-1.1.9-5.9,1.8-11.9,2.8-17.8,4.4-24.7,10.1-49.2,16.4-73.5,27.1-105.9,66.8-212,72.5-322,2.2-43-2.2-91.3-27.7-127.6-23.9-33.9-62.8-56.7-104.6-58.3-73-2.9-124.5,65.3-156.1,122.3-22.2,39.9-40.2,82.3-55.6,125.6,4.5-38.9,9.1-77.9,13.6-116.8,7.2-62,14.4-124,21.6-185.9,127.5-22.8,255.4-43.2,383.8-60,83.3-10.9,166.8-20.2,250.5-27.5,14.9-1.3,27.7-11.8,27.7-27.7s-12.7-29-27.7-27.7c-178.8,15.5-356.9,40.2-533.9,69.6-31.3,5.2-62.5,10.6-93.8,16.1.6-5.4,1.3-10.8,1.9-16.2,6.3-54.5,12.5-109,18.9-163.5,14-8.3,27.9-16.7,41.7-25.2,53-32.8,105.3-67.6,152.8-108.1,119.2-102,251.9-257.8,201.9-426.7-20.1-68-66.7-138.1-143.3-144.5-58.9-4.9-115.5,32.7-153.2,74.8-37.8,42.2-59.1,92.4-74.5,146.3-17.7,61.8-29.5,125.3-40.2,188.6-14.5,86.5-26,173.5-36.5,260.6-12.2,7-24.4,14-36.7,20.9-99,55.5-200.4,107.1-303.6,154.4-11.9,5.5-23.8,10.9-35.8,16-13.8,5.9-16.8,26.1-9.9,37.9,8.3,14.2,24.1,15.8,37.9,9.9,89.4-38.1,176.4-82.8,262.1-128.3,26.1-13.9,52.1-28,77.9-42.5-2.8,24.5-5.7,49-8.5,73.5-3.2,27.4-6.3,54.8-9.5,82.1-129.9,23.6-259.3,49.7-388.3,77.7-27.3,5.9-54.5,11.9-81.7,18-42.3-62.3-100.4-114.8-160.8-158.7-120.1-87.2-263.4-133-408.4-157.7-62-10.6-124.5-17.6-186.8-25.8-1.4-.2-5.9-.8-7-.9-1.1-.2-5.8-.8-7-1-6.9-1-13.8-1.9-20.7-3-12.6-1.9-25.2-4-37.8-6.3-35.8-6.7-71.2-15.9-105.7-27.6-33.3-11.3-65.5-25.4-95.8-43.3-26.5-15.6-45.6-29.6-67.1-50.5-9.8-9.5-19-19.7-27.6-30.4-.2-.2-.3-.4-.5-.6-.7-1-1.5-2-2.2-2.9-2-2.7-4-5.5-5.9-8.2-3.8-5.5-7.3-11-10.7-16.7-6.2-10.4-11.6-21.3-16.7-32.3-.2-.4-.3-.7-.5-1-.5-1.1-.9-2.2-1.4-3.3-1-2.6-2-5.2-3-7.7-2.2-5.9-4.2-11.8-6-17.9-3.5-11.5-6.4-23.3-8.7-35.1-1-5.3-1.9-10.6-2.7-16,0-.3-.1-.8-.2-1.2-.1-1-.3-1.9-.4-2.9-.3-3.1-.7-6.1-1-9.2-2.2-23.2-2.4-46.5-1.1-69.8.6-11.6,1.7-23.3,3-34.8.3-2.4.6-4.8.9-7.1.2-1.1.3-2.1.5-3.2.9-5.8,1.8-11.6,2.8-17.4,3.7-21.6,8.4-43.1,13.8-64.4,5.5-21.7,11.8-42.9,20.4-63.6.6-1.4,1.2-2.7,1.8-4.1,1.4-3.1,2.8-6.3,4.3-9.4,2.8-6,5.8-12,8.8-17.9,6.7-13,13.8-25.7,21.4-38.2,33.7-55.7,73.4-104,120.9-149.2,106.3-101.3,242-167.9,390.9-165.8,81.9,1.2,164,10,242.9,32.9,54.9,15.9,101.8,35.7,150.2,68.1,4.2,2.8,8.4,5.7,12.6,8.7,2.3,1.6,4.5,3.3,6.8,5,.7.5,1.4,1.1,2.1,1.6,7.1,5.6,14,11.4,20.7,17.4,11.8,10.6,22.9,21.8,33.3,33.7,9.9,11.2,29.1,10.1,39.2,0,11.2-11.2,9.9-27.9,0-39.2-63-71.8-150.2-118.3-240.7-145.9C1171.6,13.8,1089.7,3.4,1008.7.5c-80.7-2.9-159.4,6.8-234.8,36.7-133.5,53.1-246.1,151.2-327.6,268.5-31.8,45.8-59.4,95.8-76.5,149-13.7,42.7-22.5,87.5-28.3,131.9-12.5,96.5-1.8,199.1,53.5,281.7,75.4,112.6,210.2,167.6,338.8,191.8,120.7,22.8,235.8,27.7,355.3,56.4,147.8,35.6,285.3,102.6,391.7,212.9,13.6,14.1,26.2,28.9,37.8,44.2-112.1,25.6-223.9,52.6-335.2,81.2-123.1,31.6-245.1,65.1-364.6,108.5-140.7,51.1-279.3,110.2-411.4,180.8-62.4,33.3-123.5,69.4-181.1,110.5-49.3,35.2-97.5,73.8-136.9,120-52.5,61.7-85.9,137.9-89.3,219.5-3.3,82,24.8,163.7,76.4,227.3,37,45.6,87.2,73.3,141.5,93.4,64.1,23.8,132.2,36.2,199.9,44.1,146.5,16.9,302.3,10.6,444-32.3,58.2-17.6,114.3-43.6,169.4-69.2,63-29.3,124.8-61.5,184.5-97.2,133.4-79.9,259.1-178.7,350.4-305.9,48.3-67.3,83.8-142.5,99.6-224.1,16-82.5,14.8-167.3-.8-249.8-11-58.5-29.7-116.8-57.3-170.1,113.2-25.2,226.7-48.9,340.6-70.9,31-6,62.1-11.9,93.1-17.6-3.1,26.7-6.2,53.4-9.3,80.1-12.6,108.5-25.3,217-37.9,325.5-12.1,104.1-24.3,208.1-36.4,312.2-6.4,54.5-12.7,109.1-19.1,163.6-.5,4.3-1,8.7-1.6,13-.3,2.7-.6,5.4-.9,8.2-1.6,14.9,13.9,27.7,27.7,27.7s26-12.8,27.7-27.7c.9-7.3,1.7-14.6,2.6-21.9.5-3.8.9-7.5,1.4-11.3.7-5.7,1.4-11.3,2.2-17,.4-3.2.8-6.3,1.3-9.5.2-1.7.4-3.3.7-5,2.2-16.4,4.6-32.7,7-49.1,13.5-90.4,29.7-180.5,50.1-269.7,11.3-49.4,23.9-98.6,38.7-147.1,7.1-23.4,14.8-46.7,23.1-69.8,3.9-10.7,7.9-21.4,12.1-32,2-4.9,4-9.8,6-14.7.4-1,.8-1.9,1.2-2.9,1.3-2.9,2.5-5.8,3.8-8.7,8.4-18.8,17.5-37.3,27.8-55.2,4.8-8.3,9.7-16.4,15-24.4,2.4-3.7,5-7.3,7.5-10.9,1.1-1.5,2.2-3,3.3-4.5.5-.6,1-1.2,1.4-1.8,5.2-6.4,10.6-12.5,16.4-18.3,2.7-2.7,5.4-5.2,8.2-7.7,1.3-1.1,2.6-2.2,3.9-3.3.3-.2.6-.5.9-.7,5.5-3.7,10.8-7.5,16.7-10.5,1.3-.7,2.6-1.3,3.9-1.9,3-1,5.9-2.1,9-3,2.7-.7,5.4-1.1,8.1-1.7,1.6,0,3.2-.2,4.8-.3,3,0,6,.1,9,.2,0,0,0,0,0,0,1.3.3,2.7.4,4,.7,3.6.7,7.1,1.7,10.5,2.8,1.6.5,3.1,1.1,4.7,1.7.3,0,.5.2.8.2.3.2.7.3,1.1.5,4.1,2,8.2,4.1,12.1,6.5,1.9,1.2,3.7,2.4,5.5,3.6.4.3.7.5,1,.7.3.2.6.5,1,1,3.3,3,6.6,6,9.6,9.4.3.3,1.2,1.5,2.1,2.5,1,1.4,2.7,3.7,3.1,4.3,2.4,3.7,4.6,7.6,6.6,11.6,1,2,3.3,8.5.5.7.9,2.6,2,5,2.9,7.6,3.2,9.2,4.9,18.5,6.8,28,0,.8.2,1.7.3,2.5.2,2.4.5,4.9.7,7.3.5,6,.7,11.9.7,17.9.1,11.4-.4,22.7-1.4,34-.5,6-1.1,11.9-1.8,17.8-.1,1.1-.3,2.3-.4,3.4-.5,3.6-1,7.2-1.6,10.8-4.2,26.3-9.9,52.3-16.2,78.2-13.4,54.9-29.7,109-44.3,163.5-12.9,48.3-25.3,97.7-28.6,147.8-2.6,38.9,1.9,82.3,30.2,111.8,61.9,64.4,151.8.7,202.3-44.9,82.9-74.9,149.5-169.5,209.6-263,15.3-23.8,30.4-48,45.1-72.6-6.2,28.7-11.9,57.4-16.9,86.4-9.3,54.7-18.3,111.6-14.3,167.3,2.9,40.3,13.8,87.9,56.7,102.7,36.5,12.6,72.8-9,98.7-33,32.5-30.1,57.8-68.6,80.7-106.2,49.5-81.3,89.6-168.3,126.7-256-16.1,98.1-32.2,196.1-48.3,294.2-4.3,26.3-8.6,52.6-12.9,78.9-2.4,14.7,3.8,29.8,19.3,34.1,13.5,3.7,31.3-4.6,34.1-19.3,12.1-65.6,27.2-130.8,43.6-195.5,14.9-58.6,31.2-116.8,50.1-174.3,9.4-28.7,19.5-57.3,30.5-85.5,2.7-6.8,5.4-13.6,8.2-20.4.4-1,3.2-7.5,3.1-7.5,1.4-3.2,2.8-6.4,4.2-9.6,5.5-12.6,11.3-25,17.4-37.3,11.1-22.3,23.3-44.1,37.6-64.6,1.6-2.3,3.2-4.5,4.8-6.7.4-.6.7-1,1-1.4,0,0,0,0,0,0,3.6-4.4,7.1-8.8,10.9-13,6.3-7,13.2-13.1,20.3-19.2-7.3,6.3,2.9-1.9,5.8-3.7,1.7-1.1,3.5-2.1,5.3-3,1.7-.9,8.1-2.8,3-1.6-5.3,1.3.6-.2,2-.7,1.8-.6,3.6-1.2,5.4-1.6,1.5-.4,3.2-.6,4.7-1,.3,0,.6,0,.9,0,3,0,6.2.4,9.2.3,2.7.8,5.5,1.4,8.2,2.2,2.2.7,10.2,4.8,2.5.7,2.3,1.2,4.7,2.3,7,3.6,2,1.1,3.8,2.6,5.8,3.7-.4-.3-.8-.7-1.2-1.2.6.6,1.2,1,1.8,1.5,0,0,0,0,.1,0,.7.3,1.3,1,1.5,1.3,2.9,2.7,5.6,5.6,8.2,8.6-1.8-1.9,2.2,2.9,3.2,4.3,1.6,2.4,3,4.9,4.4,7.5,1.2,2.2,2,4.9,3.4,7,.3.7.5,1.4.8,2,2.2,6,4,12.1,5.5,18.2,1.5,6,2.5,12,3.6,18.1.1.7.2,1.2.3,1.6,0,.3,0,.8.1,1.5.4,3.6.8,7.2,1,10.8,1.1,14.3,1.3,28.7,1,43-.7,31.2-3.9,62.2-7.9,93.1,0,0-.3,2-.5,3.4-.2,1.4-.5,3.5-.5,3.5-.6,4-1.1,7.9-1.7,11.9-1.2,7.9-2.3,15.9-3.6,23.8-2.5,16.4-5.2,32.8-7.8,49.2-8.5,53.3-20.7,109.4-16.7,163.6,1.6,21.3,5.7,43.7,20.4,60.1,15.8,17.7,41.6,24.6,63.9,16.3,25.2-9.4,42.6-31.9,57.3-53.4,16.8-24.7,30.6-51.4,44.7-77.7,15.3-28.7,30.5-57.6,48.2-84.9,3.8-5.9,7.7-11.7,11.9-17.3,1-1.4,5-6.5,3.9-5.2,2.1-2.6,4.3-5.3,6.5-7.8,4.2-4.8,8.6-9.4,13.3-13.7.1,0,.2-.2.3-.3,22.9,79.1,65.5,158.6,126.7,212.2,28.5,25,63.7,46.3,102.8,46.5,37.7.2,78.6-16.9,108.9-38.5,52.5-37.5,87.2-93.7,107-154.4,3.3-10.1,6.4-20.4,8.3-30.8,2.7-14.7-4-29.9-19.3-34.1ZM2142.5,939.5c1.7-12.9,4.5-32.9,6.8-48.5,2.5-17.5,5.1-35.1,7.9-52.6,5.3-34.1,11-68.1,17.4-101.9,10.8-57.1,22.7-114.8,42.3-169.6,1.8-5,3.6-9.9,5.5-14.8.9-2.3,3.6-8.3,1-2.5,1.1-2.6,2.3-5.1,3.4-7.7,5.8-12.3,12.6-24.1,20.3-35.4,2-2.9,4-5.7,6.1-8.6.2-.3,1.1-1.5,1.8-2.3.5-.6,1.1-1.4,1.2-1.4,4.7-5.8,9.7-11.4,14.9-16.8,4.8-5,9.9-9.9,15.1-14.5,2.3-2,4.6-4,6.9-5.9.9-.7,1.8-1.4,2.7-2.1.4-.3,3.8-2.8,4-2.9,5.1-3.6,10.4-7.1,15.9-10.2,2.5-1.4,5-2.8,7.6-4.2,1.5-.8,9.1-4.2,7.9-3.9,5-2,10.2-3.8,15.4-5.2,3-.8,6-1.5,9-2.1,1.1-.2,2.3-.4,3.4-.6.3,0,.5-.1.7-.1.3,0,.6,0,1,0,5.7-.1,11.2-.4,16.9-.1,1,0,1.6,0,2,0,.4.1,1,.2,1.9.4,3.4.7,6.7,1.5,10,2.5,1.3.4,6.3,2.3,6.1,2.1,1.9.9,3.9,1.9,5.7,2.9,2.9,1.6,5.7,3.3,8.5,5.1,1.4.9,2.8,1.9,4.2,2.9.1,0,.2.1.3.2.2.2.6.6,1.3,1.2,50.8,45.5,69.6,126.9,54.7,193.5-17.2,77.1-67.2,142.9-120.7,198.9-25.4,26.6-52.2,52.1-80.6,75.4-4.8,4-9.7,7.9-14.6,11.7,0,0-.1,0-.2.2-.1,0-.2.1-.3.2-1,.8-2.1,1.6-3.1,2.4-3.5,2.7-7.1,5.3-10.6,7.9-11.9,8.8-24,17.3-36.3,25.7-23.5,16-47.4,31.4-71.6,46.2,2.7-21.9,5.5-43.7,8.5-65.5ZM152.5,2419.3c1.1.9,3.2,2.6,0,0h0ZM1587,1501.9c25.6,73.2,37.5,150.7,34.9,228.1-2.7,81.2-22.6,161.9-62.7,232.8-37.1,65.7-85.5,124-139.8,176.2-106,101.9-233,180.4-364.1,245.6-28.4,14.1-57,27.6-86,40.5-12.9,5.7-25.8,11.4-38.7,16.9-.8.3-4.8,2-5.6,2.4-2.8,1.2-5.7,2.4-8.5,3.6-6.6,2.7-13.2,5.5-19.8,8.1-63.6,25.2-132.2,39.9-199.6,47.7-141.2,16.2-289.8,10.9-426.1-29.6-29.1-8.6-52.4-17.2-76.7-29.4-11-5.5-21.7-11.6-32-18.5-2.2-1.5-4.4-3-6.6-4.6-1.1-.8-2.3-1.6-3.4-2.5-5-4.1-9.9-8.4-14.6-12.9-51.5-49.9-80.9-122-82.2-193.6-.8-42,7.6-84.5,25.1-122.7,8.4-18.2,18.3-35.7,29.7-52.2,1.6-2.3,3.2-4.6,4.9-6.9,1-1.3,1.9-2.6,2.9-3.9.2-.2.3-.4.4-.6,3.8-4.9,7.8-9.7,11.9-14.4,39-45.2,84.7-81.9,132-115.1,119.5-83.7,252.1-148.9,385.7-206.6,120.3-51.9,243.9-97.8,369.9-134,137-39.4,276-72.9,414.7-105.8,39.5-9.3,79-18.5,118.6-27.5,14,24.6,25.9,50.8,35.7,78.9ZM2280.6,1422.1c.3,0,.2,0,0,0h0ZM2339.2,2068.4c1.1.3,2.1.7,2,.9,0,0-1.1-.5-2-.9ZM2345.1,2070.2c-.2,0-.3,0-.5,0,.2,0,.3,0,.5,0ZM2346.3,2070.4c1.9.3,3.7,1.1,0,0h0ZM2782.7,2019.6c0,0-.5-.5-1-1.3.6.6,1.1,1.2,1,1.3ZM3032.3,1642.8c-.5,1.2-1,2.3,0,0h0ZM3336,1420.8c-1.6-.3-2.9-.8,0,0h0ZM3411,1907.7c0,0,.2,1.2.3,2.4-.2-1-.5-2.2-.3-2.4ZM3417,1927.9c0,0,.2,0,.3.1.3.7.3.9-.3-.1ZM3417.2,1927.9s0,0,0,.1c0,0-.2,0-.3-.1,0,0-.1-.2-.2-.3.1,0,.2.2.4.3ZM3871.2,1305.7c-3.8-.4-1.4-.2,0,0h0ZM3668.9,1497.1c8.5-40.4,21.4-73.8,45.1-107.5,5.1-7.3,7.7-10.5,14.8-18.4,6.8-7.6,14.1-14.7,21.9-21.4,6.1-5.3,9.6-7.9,17.8-13.4,8.3-5.5,16.9-10.5,25.8-14.9,14.3-7.1,31.1-13.2,49.6-15.8-.6.2,8.3-.6,9.7-.6,3.9-.1,7.8-.1,11.7.1,2,.1,4,.3,6,.5.2,0,.4,0,.5,0,4.9,1,9.7,2,14.4,3.5,1.5.5,3.1,1.1,4.6,1.6.2,0,.3,0,.4.1.2,0,.4.2.7.4,3.2,1.7,6.4,3.3,9.4,5.3.4.3,3.4,2.5,3.9,2.8.7.6,1.3,1.1,2,1.7,1.2,1.1,2.4,2.2,3.5,3.4.6.6,4.9,5.7,4.6,5.1,7.8,10.3,13.5,26.8,15,41.6.8,7.6.7,15.2.2,22.8,0,.4-.6,4.4-.9,6.1-.9,4.6-2.1,9.2-3.4,13.6-1.2,3.9-2.5,7.8-3.9,11.7-.5,1.3-1,2.5-1.5,3.8-.2.6-.5,1.2-.6,1.5-4.1,9.2-8.8,18.1-13.9,26.7-20.4,34.5-46.3,63.4-77.1,91.3-33.2,30-70.5,55.4-110.9,75.2-17.1,8.4-34.2,15.2-52.6,20.9-7.6-49.5-6.9-100.1,3.2-147.7Z"/><path class="cls-2" d="M2324,2056.1s0,0,0,0c0,0,0,0,0,0,0,0,0,0,0,0Z"/><path class="cls-1" d="M3360.9,1431.6c-.2,0-.4-.2-.6-.3,2.1,2,2.5,2.1,2.2,1.7h0c-.5-.5-1.1-.9-1.7-1.4Z"/><path class="cls-6" d="M2882.5,1217.5c17.2,0,31.1-13.9,31.1-31.1s-13.9-31.1-31.1-31.1-31.1,13.9-31.1,31.1,13.9,31.1,31.1,31.1Z"/></svg>