<svg width="311" height="362" viewBox="0 0 311 362" fill="none" xmlns="http://www.w3.org/2000/svg">
<g filter="url(#filter0_f_247_1744)">
<ellipse cx="78" cy="352" rx="72" ry="4" fill="#F3F3F3"/>
</g>
<g filter="url(#filter1_f_247_1744)">
<ellipse cx="243" cy="350" rx="62" ry="6" fill="#F3F3F3"/>
</g>
<path d="M241.879 70.0773C241.222 70.0773 240.637 69.8582 239.98 69.7851C239.103 69.7121 238.227 69.9312 237.35 69.7851C234.355 69.4929 221.718 62.4805 236.547 51.0854C254.954 36.9146 249.695 70.0043 241.879 70.0773Z" fill="#2C3945"/>
<path d="M216.751 64.8908C220.622 69.2005 227.854 67.7396 225.736 57.4402C224.202 49.9165 210.25 57.7323 216.751 64.8908Z" fill="#534137"/>
<path d="M234.063 75.1172C226.101 75.1172 218.066 72.7798 234.063 72.7798C250.06 72.7798 242.171 75.1172 234.063 75.1172Z" fill="#4C4C4C"/>
<path d="M258.387 92.6483C248.526 85.5629 239.395 85.709 243.121 67.3014L226.174 66.2788C225.517 79.9383 226.393 80.8879 220.696 85.9281C219.454 87.0238 211.419 91.6257 211.419 91.6257C224.129 102.948 247.43 101.998 258.387 92.6483Z" fill="#FDA98B"/>
<path d="M221.937 40.4937C214.852 66.717 235.086 85.0515 246.116 64.7448C265.911 28.222 227.781 19.0913 221.937 40.4937Z" fill="#FDA98B"/>
<path d="M240.929 32.8238C241.514 37.1335 238.007 37.7179 235.013 37.7909C225.371 38.2292 220.915 50.7931 220.769 55.0297C213.464 38.0101 228.292 20.1139 237.861 24.3505C240.71 25.5923 240.564 30.1942 240.929 32.8238Z" fill="#534137"/>
<path d="M251.302 53.2767C248.891 52.108 247.942 57.5864 247.504 60.2891C246.7 65.6214 255.1 55.1028 251.302 53.2767Z" fill="#FDA98B"/>
<path d="M219.673 48.2364C222.303 47.8712 221.718 53.3496 221.353 56.0523C220.623 61.3846 215.509 48.8208 219.673 48.2364Z" fill="#FDA98B"/>
<path d="M227.562 52.1809C226.686 52.0348 226.466 48.5286 228.585 48.8208C229.753 48.9668 228.95 52.4 227.562 52.1809Z" fill="#333333"/>
<path d="M242.682 54.4453C243.559 54.5914 244.728 51.2313 242.609 50.9391C241.441 50.793 241.221 54.2262 242.682 54.4453Z" fill="#333333"/>
<path d="M230.338 44.7303C231.725 45.1686 231.36 46.5565 230.338 46.3373C228.804 46.0452 228.584 45.3147 225.516 46.1182C222.156 46.9948 226.101 43.4155 230.411 44.7303H230.338Z" fill="#3A302A"/>
<path d="M241.952 46.6294C240.491 46.4833 240.345 47.8712 241.368 48.0903C242.682 48.3825 243.34 47.8712 245.896 49.8434C248.672 52.0348 246.408 47.1407 241.952 46.6294Z" fill="#3A302A"/>
<path d="M232.383 57.8053C232.164 58.0975 232.237 58.4627 232.529 58.6088C235.378 60.3619 235.378 58.828 234.501 58.7549C231.506 58.5358 234.647 57.6592 235.451 52.546C235.524 52.0347 234.94 51.8886 234.794 52.3269C234.574 53.0574 234.355 55.5409 232.383 57.8053Z" fill="#EE795C"/>
<path d="M238.008 64.0143C238.154 64.0143 238.3 64.1604 238.154 64.3065C231.214 71.3919 228.293 62.4073 229.388 62.9917C231.068 63.9412 234.282 64.8178 238.008 64.0143Z" fill="white"/>
<path d="M219.892 51.0121C220.038 50.793 220.33 51.0121 220.257 51.1582C219.6 52.6191 219.892 53.5687 220.477 54.007C220.55 54.007 220.55 54.2262 220.477 54.2992C220.038 54.8836 218.943 53.0574 219.892 51.0121Z" fill="#EE795C"/>
<path d="M249.549 58.682C250.206 58.0976 250.206 57.075 250.206 56.1254C250.206 55.8332 250.571 55.8332 250.571 56.1254C250.571 59.6316 248.891 59.1933 249.476 58.682H249.549Z" fill="#EE795C"/>
<path d="M226.758 69.4927C231.945 75.3364 239.834 73.2911 242.025 69.931C242.902 68.6162 242.025 73.072 235.524 73.5103C228.292 74.0216 225.297 67.7396 226.758 69.4197V69.4927Z" fill="#EE795C"/>
<path d="M235.013 190.091C236.401 217.41 235.597 242.538 239.249 260.142C247.431 299.44 244.728 332.165 244.728 332.165C248.161 335.452 254.662 334.795 254.589 331.581C254.005 302.216 264.085 292.574 258.534 264.452C251.156 227.125 265.838 186.147 264.961 180.376C262.259 161.969 233.26 154.664 235.086 190.164L235.013 190.091Z" fill="#FDA98B"/>
<path d="M232.675 271.245C236.4 292.793 232.164 306.38 231.579 333.553C231.506 337.57 225.224 338.52 221.718 334.429C221.718 334.429 221.061 301.047 214.852 267.519C207.693 228.659 204.479 187.388 204.699 191.333C203.457 168.981 215.436 163.941 223.983 165.694C247.722 170.515 226.904 237.571 232.675 271.245Z" fill="#FDA98B"/>
<path d="M181.105 177.454C181.105 181.618 181.397 181.034 184.903 183.079C187.314 184.467 190.601 185.708 194.984 183.298C195.714 182.933 212.734 184.54 215.144 153.787C215.802 144.876 214.121 140.858 213.464 131.947C212.88 124.277 221.061 92.137 209.812 88.7038C197.686 85.0515 190.674 120.333 189.943 127.345C188.775 139.763 181.251 159.85 181.178 177.381L181.105 177.454Z" fill="#333333"/>
<path d="M190.089 185.051C187.825 185.051 185.999 184.175 184.684 183.444C184.173 183.152 183.661 182.86 183.296 182.641C180.959 181.326 180.667 181.107 180.74 177.454C180.813 166.863 183.588 155.321 185.999 145.168C187.606 138.594 189.067 132.312 189.505 127.418C190.09 121.063 195.349 95.351 204.114 89.4343C205.94 88.1925 207.84 87.9003 209.812 88.4116C218.431 90.9682 216.24 108.791 214.633 121.794C214.122 126.176 213.61 129.975 213.756 131.947C213.975 135.161 214.341 137.717 214.706 140.128C215.363 144.365 215.875 148.09 215.436 153.788C213.975 172.195 207.109 182.494 195.568 183.517C195.349 183.517 195.13 183.517 195.057 183.517C193.23 184.54 191.55 184.905 190.089 184.905V185.051ZM181.47 177.454C181.47 180.741 181.47 180.814 183.661 181.983C184.1 182.202 184.538 182.421 185.049 182.787C187.168 184.028 190.455 185.343 194.764 183.006C194.91 182.933 195.057 182.933 195.495 182.86C209.593 181.618 213.683 166.351 214.706 153.788C215.144 148.163 214.633 144.511 213.975 140.274C213.61 137.791 213.245 135.234 213.026 132.02C212.88 129.975 213.318 126.103 213.902 121.72C215.363 109.668 217.628 91.5526 209.593 89.1421C207.913 88.6308 206.16 88.923 204.553 90.0187C196.006 95.7893 190.893 121.136 190.236 127.491C189.724 132.458 188.263 138.74 186.656 145.314C184.246 155.468 181.47 166.936 181.397 177.454H181.47Z" fill="#4C4C4C"/>
<path d="M255.1 148.309C267.153 170.953 266.422 179.938 272.12 222.743C272.339 224.277 271.316 225.738 269.782 226.03C243.705 230.924 226.905 232.019 203.019 227.052C201.631 226.76 200.608 225.445 200.754 223.984C203.457 179.134 200.754 177.454 213.464 149.478C225.151 152.107 243.194 150.574 255.1 148.382V148.309Z" fill="#FEBA51"/>
<path d="M190.966 208.791C192.062 208.133 192.792 210.398 191.185 210.617C190.674 210.69 190.09 210.398 189.797 209.96C189.286 211.055 191.258 212.005 190.893 213.174C190.09 215.292 179.936 210.617 182.858 204.481C183.442 203.166 184.319 204.262 185.195 204.846C190.82 208.499 195.349 205.504 191.039 208.791H190.966Z" fill="#EE795C"/>
<path d="M180.667 201.705C179.863 202.655 179.863 202.947 179.936 204.262C180.302 208.718 178.694 208.718 181.105 211.274C185.269 215.803 188.702 217.41 188.483 215.365C188.263 213.027 180.009 210.398 184.1 204.043C187.022 199.514 190.163 204.408 189.067 207.038C188.775 207.768 187.387 209.302 188.483 211.493C193.815 208.206 192.062 202.509 192.573 199.149C192.792 197.834 194.399 192.94 190.674 192.136C188.41 191.625 188.117 192.94 180.74 201.778L180.667 201.705Z" fill="#FDA98B"/>
<path d="M255.1 148.309C241.002 152.765 225.078 153.276 213.464 149.405L214.779 141.078L253.42 140.055L255.173 148.309H255.1Z" fill="#333333"/>
<path d="M268.906 200.318C267.08 200.464 268.687 196.227 268.979 191.552C269.49 183.298 265.107 181.764 265.034 185.27C265.034 186.512 265.984 188.776 263.939 190.164C263.574 190.383 262.551 190.676 262.697 189.507C263.062 186.95 261.236 187.754 263.647 179.646C264.669 176.212 264.158 171.245 267.664 171.245C271.462 171.245 271.316 177.381 271.535 178.915C274.019 194.036 269.636 200.098 268.906 200.171V200.318Z" fill="#FDA98B"/>
<path d="M245.239 103.094C250.06 116.972 286.51 130.048 279.79 136.476C274.238 141.808 269.929 148.528 267.299 155.833C265.692 160.362 267.664 158.901 269.709 163.21C271.901 167.958 273.07 169.127 278.183 168.835C283.296 168.543 289.432 173.875 293.011 170.077C299.658 162.991 304.479 153.276 304.698 143.488C304.844 136.987 307.547 128.806 304.114 122.524C302.215 118.945 298.416 116.973 295.787 113.905C287.167 103.97 274.238 101.195 263.427 91.7717C253.712 83.2254 242.098 93.8901 245.239 103.167V103.094Z" fill="#333333"/>
<path d="M289.651 171.83C287.971 171.83 286.072 171.172 284.245 170.588C282.2 169.858 280.082 169.127 278.11 169.273C272.85 169.565 271.535 168.397 269.271 163.43C268.541 161.896 267.883 161.092 267.299 160.508C266.203 159.339 265.838 158.755 266.861 155.76C269.49 148.382 273.873 141.589 279.424 136.257C279.936 135.745 280.155 135.234 280.155 134.577C279.863 131.655 273.362 127.418 266.495 122.889C257.438 116.973 247.284 110.252 244.801 103.24C243.194 98.6381 245.239 93.1596 249.622 90.1648C254.077 87.1699 259.264 87.6812 263.574 91.4796C268.395 95.7162 273.727 98.6381 278.913 101.414C285.268 104.847 291.258 108.134 296.006 113.685C297.028 114.854 298.197 115.877 299.366 116.899C301.192 118.506 303.164 120.187 304.333 122.378C306.816 126.907 306.159 132.385 305.502 137.644C305.209 139.763 304.99 141.735 304.99 143.561C304.844 152.838 300.535 162.626 293.23 170.442C292.207 171.538 290.966 171.903 289.651 171.903V171.83ZM278.548 168.47C280.52 168.47 282.492 169.2 284.465 169.858C287.606 170.953 290.6 171.976 292.646 169.858C299.804 162.188 304.041 152.546 304.26 143.488C304.26 141.589 304.552 139.617 304.771 137.498C305.429 132.385 306.086 127.053 303.676 122.67C302.507 120.552 300.754 119.018 298.855 117.411C297.686 116.388 296.444 115.366 295.421 114.124C290.746 108.718 284.83 105.504 278.548 102.071C273.362 99.2224 268.029 96.3006 263.135 91.9909C259.045 88.4117 254.224 87.9734 250.06 90.7491C245.969 93.5249 244.07 98.6381 245.531 102.948C247.869 109.741 258.022 116.388 266.934 122.232C274.311 127.053 280.593 131.216 280.958 134.503C281.031 135.38 280.739 136.11 280.009 136.768C274.457 142.027 270.221 148.747 267.591 155.979C266.641 158.609 266.934 158.974 267.883 159.996C268.467 160.581 269.198 161.457 270.001 163.137C272.12 167.739 273.142 168.835 278.11 168.543C278.256 168.543 278.402 168.543 278.548 168.543V168.47Z" fill="#4C4C4C"/>
<path d="M265.4 171.976L271.243 176.286L278.11 168.908C274.53 168.324 271.828 166.497 269.636 163.283L265.4 171.976Z" fill="#333333"/>
<path d="M222.741 84.0288C224.348 89.6533 243.705 89.288 244.947 83.7366C250.718 85.5627 255.904 87.0236 261.163 90.0915C265.911 122.232 259.483 140.347 251.886 141.662C236.035 144.218 226.612 144.73 214.779 142.173C204.407 138.74 205.429 103.167 209.812 88.7037C209.812 88.7037 214.487 86.5123 222.814 83.9557L222.741 84.0288Z" fill="#333333"/>
<path d="M230.119 144.292C225.005 144.292 220.038 143.78 214.633 142.612C203.53 138.959 205.21 102.437 209.374 88.6309V88.4848H209.593C209.593 88.4848 214.341 86.2934 222.668 83.7368L223.033 83.5907V83.9559C223.91 86.6586 229.388 87.9004 234.501 87.7543C239.98 87.6082 244.143 85.9282 244.655 83.7368V83.3716C244.728 83.3716 246.992 84.102 246.992 84.102C251.959 85.636 256.707 87.17 261.382 89.8726H261.528C261.528 89.9457 261.528 90.1648 261.528 90.1648C266.203 122.013 260.067 140.712 251.886 142.173C243.486 143.561 236.693 144.365 230.192 144.365L230.119 144.292ZM210.031 89.0691C205.575 104.19 204.991 138.667 214.852 141.954C227.124 144.584 236.912 143.853 251.74 141.443C258.46 140.274 265.619 123.62 260.798 90.457C256.196 87.8274 251.594 86.3665 246.7 84.8325L245.166 84.3212C244.143 87.243 238.811 88.4117 234.428 88.5578C229.315 88.7039 223.764 87.5352 222.522 84.6134C215.29 86.8778 210.908 88.777 210.031 89.1422V89.0691Z" fill="#4C4C4C"/>
<path d="M231.58 153.641C230.776 153.641 230.338 153.495 229.973 153.203C229.607 152.838 229.534 152.4 229.461 152.034C229.388 150.574 229.242 149.405 229.169 148.382C228.877 144.876 228.804 143.853 229.388 143.196C229.753 142.831 230.192 142.758 230.484 142.685C231.507 142.685 232.31 142.539 233.041 142.465C235.743 142.246 236.693 142.173 237.35 142.685C237.715 143.05 237.788 143.488 237.862 143.853C237.935 145.314 238.081 146.483 238.154 147.506C238.446 151.012 238.519 152.034 237.935 152.692C237.569 153.057 237.131 153.13 236.839 153.203C235.816 153.203 235.013 153.349 234.282 153.422C233.114 153.495 232.237 153.568 231.58 153.568V153.641ZM235.816 143.707C235.232 143.707 234.209 143.78 233.187 143.853C232.456 143.853 231.58 143.999 230.63 144.072C230.484 144.072 230.411 144.072 230.411 144.072C230.192 144.365 230.411 145.972 230.557 148.236C230.63 149.259 230.703 150.427 230.849 151.888C230.849 152.034 230.849 152.108 230.849 152.108C231.068 152.254 232.529 152.108 234.136 152.034C234.867 152.034 235.743 151.888 236.693 151.815C236.839 151.815 236.912 151.815 236.912 151.815C237.131 151.523 236.912 149.916 236.766 147.652C236.693 146.629 236.62 145.46 236.474 143.999C236.474 143.853 236.474 143.78 236.474 143.78C236.401 143.78 236.182 143.707 235.816 143.707Z" fill="url(#paint0_linear_247_1744)"/>
<path d="M193.742 193.013L186.584 193.159L184.903 183.079C188.19 184.686 191.478 184.686 194.984 183.298L193.742 192.94V193.013Z" fill="#333333"/>
<path d="M249.695 78.1853C250.864 58.8282 257.803 49.0401 249.914 33.1161C245.677 24.6428 240.053 24.0584 239.322 27.5646C239.249 28.0029 249.476 83.0063 249.768 78.1853H249.695Z" fill="#534137"/>
<path d="M244.874 83.8096C244.143 89.288 223.837 90.0185 222.668 84.1018L224.786 73.6562C230.995 75.2633 236.474 75.6285 243.048 73.6562L244.874 83.8826V83.8096Z" fill="#333333"/>
<path d="M240.783 33.4813C240.783 33.4813 240.783 33.4813 240.71 33.4813C240.491 33.4813 240.418 33.1891 240.418 33.043C240.929 31.2169 240.637 29.2446 239.688 27.6376C239.615 27.4915 239.688 27.1994 239.834 27.1263C239.98 27.0533 240.272 27.1263 240.345 27.2724C241.441 29.0255 241.733 31.2169 241.222 33.2621C241.222 33.4082 241.002 33.5543 240.856 33.5543L240.783 33.4813Z" fill="#3A302A"/>
<path d="M230.119 28.7332C230.045 28.7332 229.972 28.7332 229.899 28.6602C229.753 28.5141 229.753 28.295 229.899 28.1489C231.872 26.0306 234.647 25.5923 236.4 25.8845C237.569 26.0306 238.446 26.5419 238.738 27.1262C238.811 27.3454 238.738 27.5645 238.592 27.6376C238.373 27.7106 238.154 27.6376 238.081 27.4915C237.934 27.1993 237.35 26.8341 236.327 26.688C234.72 26.4688 232.237 26.8341 230.484 28.7332C230.411 28.8063 230.338 28.8793 230.192 28.8793L230.119 28.7332Z" fill="#3A302A"/>
<path d="M235.378 30.6326C235.159 30.6326 234.866 30.6326 234.647 30.6326C234.428 30.6326 234.282 30.4135 234.355 30.1943C234.355 29.9752 234.574 29.8291 234.793 29.9021C235.597 30.0482 236.4 29.9021 237.204 29.683C237.642 29.61 238.154 29.5369 238.592 29.4639C239.176 29.4639 239.322 29.683 239.395 29.8291C239.468 30.0482 239.395 30.2674 239.176 30.3404C239.03 30.3404 238.811 30.3404 238.738 30.1943C238.738 30.1943 238.738 30.1943 238.665 30.1943C238.227 30.1943 237.788 30.3404 237.35 30.4135C236.693 30.5596 236.035 30.6326 235.378 30.6326Z" fill="#3A302A"/>
<path d="M229.899 38.3021C229.826 38.3021 229.753 38.3021 229.68 38.2291C229.534 38.083 229.534 37.8638 229.68 37.7177C232.091 35.1611 233.625 35.0881 235.159 35.0151C235.962 35.0151 236.766 34.942 237.715 34.5037C238.373 34.2116 239.103 33.5541 239.249 32.7506C239.249 32.5315 239.468 32.3854 239.687 32.4585C239.907 32.4585 240.053 32.6776 239.98 32.8967C239.834 33.8463 239.103 34.7959 238.08 35.2342C236.985 35.7455 236.108 35.7455 235.305 35.8186C233.844 35.8186 232.529 35.9646 230.338 38.3021C230.338 38.3752 230.192 38.4482 230.045 38.4482L229.899 38.3021Z" fill="#3A302A"/>
<path d="M220.915 41.5894C220.696 41.5894 220.55 41.3703 220.623 41.1512C221.134 37.645 223.179 34.577 224.932 31.8744C225.079 31.7283 225.298 31.6552 225.444 31.8013C225.59 31.9474 225.663 32.1665 225.517 32.3126C223.764 34.9423 221.792 37.9371 221.28 41.2972C221.28 41.5164 221.061 41.5894 220.915 41.5894Z" fill="#3A302A"/>
<path d="M222.23 45.4607C222.01 45.4607 221.864 45.2416 221.937 45.0224C222.449 41.9545 222.887 41.224 224.494 39.3979C224.64 39.2518 224.859 39.2518 225.005 39.3979C225.151 39.544 225.151 39.7631 225.005 39.9092C223.617 41.5893 223.179 42.1736 222.668 45.1685C222.668 45.3146 222.449 45.4607 222.303 45.4607H222.23Z" fill="#3A302A"/>
<path d="M248.161 34.5769C247.942 34.5769 247.796 34.4308 247.796 34.2116C247.796 31.655 245.312 29.3176 243.559 28.441C242.755 28.0028 242.317 28.0758 242.244 28.1488C242.098 28.2949 241.879 28.2219 241.733 28.0758C241.587 27.9297 241.66 27.7106 241.806 27.5645C242.39 27.1993 243.267 27.4914 243.924 27.7836C245.677 28.6602 248.526 31.1437 248.526 34.1386C248.526 34.3577 248.38 34.5038 248.161 34.5038V34.5769Z" fill="#3A302A"/>
<path d="M244.362 33.3352C244.216 33.3352 244.07 33.1891 243.997 33.043C243.851 32.5317 242.975 31.509 242.317 31.509C242.098 31.509 241.952 31.3629 241.952 31.1438C241.952 30.9247 242.098 30.7786 242.317 30.7786C243.34 30.7786 244.582 32.0203 244.728 32.8969C244.728 33.116 244.655 33.2621 244.435 33.3352C244.435 33.3352 244.435 33.3352 244.362 33.3352Z" fill="#3A302A"/>
<path d="M244.874 49.2592C244.728 49.2592 244.582 49.1131 244.509 48.967C243.194 43.4886 242.683 40.2746 242.39 38.1563C242.098 36.3301 242.025 35.3805 241.514 34.6501C241.441 34.504 241.514 34.2118 241.66 34.1388C241.806 34.0657 242.025 34.1388 242.171 34.2849C242.756 35.1614 242.902 36.2571 243.121 38.0832C243.413 40.2016 243.851 43.4156 245.166 48.8209C245.166 49.0401 245.166 49.1862 244.874 49.2592C244.874 49.2592 244.874 49.2592 244.801 49.2592H244.874Z" fill="#3A302A"/>
<path d="M250.425 54.4453C250.206 54.4453 250.06 54.2262 250.133 54.007V53.8609C250.791 49.4051 251.594 43.9267 249.549 39.3248C249.476 39.1057 249.549 38.8866 249.768 38.8135C249.987 38.7405 250.206 38.8135 250.279 39.0327C252.471 43.8537 251.667 49.4782 251.01 54.007V54.1531C251.01 54.3723 250.791 54.4453 250.644 54.4453H250.425Z" fill="#3A302A"/>
<path d="M249.11 66.7901C248.891 66.7901 248.745 66.644 248.745 66.4979C248.307 62.9187 247.649 59.4125 246.846 55.9063C246.846 55.6872 246.919 55.5411 247.138 55.468C247.357 55.468 247.503 55.5411 247.576 55.7602C248.38 59.2664 249.037 62.8456 249.549 66.4249C249.549 66.644 249.402 66.7901 249.256 66.8631L249.11 66.7901Z" fill="#3A302A"/>
<path d="M217.555 62.5534C217.555 62.5534 217.409 62.5534 217.336 62.5534C216.386 62.0421 216.021 61.0925 216.313 59.8507C216.678 58.4628 217.774 57.148 218.65 57.075C218.87 57.075 219.016 57.221 219.016 57.4402C219.016 57.6593 218.87 57.8054 218.65 57.8054C218.285 57.8054 217.336 58.828 217.043 59.9968C216.824 60.8733 217.043 61.4577 217.701 61.8229C217.847 61.896 217.92 62.1151 217.847 62.3342C217.847 62.4803 217.628 62.5534 217.555 62.5534Z" fill="#3A302A"/>
<path d="M222.449 64.3065C222.376 64.3065 222.303 64.3065 222.23 64.2335C221.061 63.1378 220.403 61.5308 220.403 59.9968C220.403 59.7777 220.55 59.6316 220.769 59.6316C220.988 59.6316 221.134 59.7777 221.134 59.9968C221.134 61.3847 221.791 62.7726 222.741 63.7221C222.887 63.8682 222.887 64.0874 222.741 64.2335C222.668 64.3065 222.595 64.3796 222.449 64.3796V64.3065Z" fill="#3A302A"/>
<path d="M220.915 65.9135C219.892 65.7674 218.943 65.183 218.358 64.3065C218.212 64.1604 218.358 63.9413 218.431 63.7952C218.577 63.6491 218.797 63.7952 218.943 63.8682C219.381 64.5987 220.184 65.037 220.988 65.183C221.207 65.183 221.353 65.4022 221.28 65.6213C221.28 65.8405 221.061 65.9135 220.915 65.9135Z" fill="#3A302A"/>
<path d="M286.072 139.763C285.925 139.763 285.779 139.69 285.706 139.543C284.83 137.06 283.661 134.795 281.47 134.869H280.739L285.268 128.441C285.414 128.294 285.633 128.221 285.779 128.367C285.925 128.514 285.999 128.733 285.852 128.879L282.127 134.138C284.684 134.576 285.779 137.717 286.364 139.251C286.364 139.47 286.364 139.69 286.145 139.763C286.145 139.763 286.072 139.763 285.999 139.763H286.072Z" fill="#4C4C4C"/>
<path d="M295.421 127.929C295.275 127.929 295.056 127.783 295.056 127.637C294.764 126.03 295.421 125.081 296.079 124.131C297.028 122.67 297.978 121.209 296.736 117.338C296.736 117.119 296.736 116.899 296.955 116.899C297.174 116.899 297.394 116.899 297.394 117.119C298.708 121.355 297.613 123.108 296.663 124.496C296.079 125.446 295.567 126.176 295.787 127.491C295.787 127.71 295.713 127.856 295.494 127.929H295.421Z" fill="#4C4C4C"/>
<path d="M194.911 183.663L194.545 182.933C193.961 181.837 193.669 180.595 193.742 179.353C193.742 179.134 193.961 178.988 194.107 178.988C194.326 178.988 194.472 179.134 194.472 179.353C194.472 180.157 194.545 181.033 194.837 181.764C195.714 179.938 196.81 178.258 198.198 176.797C198.344 176.651 198.563 176.651 198.709 176.797C198.855 176.943 198.855 177.162 198.709 177.308C197.175 178.842 195.933 180.741 195.13 182.787L194.837 183.517L194.911 183.663Z" fill="#4C4C4C"/>
<path d="M184.976 182.056C184.83 182.056 184.684 181.983 184.611 181.764C184.1 180.084 184.027 178.185 184.465 176.432C184.465 176.212 184.684 176.139 184.903 176.139C185.122 176.139 185.195 176.359 185.195 176.578C184.757 178.185 184.83 179.938 185.342 181.472C185.342 181.691 185.342 181.91 185.122 181.91C185.122 181.91 185.049 181.91 184.976 181.91V182.056Z" fill="#4C4C4C"/>
<path d="M270.586 161.969C270.44 161.969 270.221 161.823 270.221 161.677C269.855 159.339 270.659 156.855 272.339 155.248C272.485 155.102 272.704 155.102 272.85 155.248C272.996 155.395 272.996 155.614 272.85 155.76C271.316 157.148 270.586 159.412 270.951 161.53C270.951 161.75 270.878 161.896 270.659 161.969H270.586Z" fill="#4C4C4C"/>
<path d="M278.11 167.958C277.964 167.958 277.817 167.885 277.744 167.666C277.744 167.447 277.744 167.301 278.037 167.228C280.155 166.644 282.054 165.329 283.369 163.503C283.515 163.356 283.734 163.283 283.88 163.429C284.026 163.576 284.099 163.795 283.953 163.941C282.565 165.913 280.52 167.374 278.183 167.958C278.183 167.958 278.183 167.958 278.11 167.958Z" fill="#4C4C4C"/>
<path d="M197.979 125.811C197.979 125.811 197.832 125.811 197.759 125.811C194.618 123.912 192.865 119.967 193.45 116.315C193.45 116.096 193.669 115.95 193.888 116.023C194.107 116.023 194.253 116.242 194.18 116.461C193.669 119.894 195.276 123.474 198.125 125.227C198.271 125.3 198.344 125.592 198.271 125.738C198.271 125.884 198.052 125.884 197.979 125.884V125.811Z" fill="#4C4C4C"/>
<path d="M205.721 152.107C205.648 152.107 205.502 152.107 205.429 151.961C205.283 151.815 205.283 151.596 205.429 151.45C206.086 150.939 206.671 150.427 207.182 149.989C210.542 147.213 212.222 145.825 212.003 143.926C212.003 143.707 212.149 143.561 212.295 143.488C212.514 143.488 212.661 143.634 212.734 143.78C213.026 146.045 211.2 147.579 207.62 150.5C207.109 150.939 206.452 151.45 205.867 151.961C205.867 151.961 205.721 152.034 205.648 152.034L205.721 152.107Z" fill="#4C4C4C"/>
<path d="M217.628 140.858C217.555 140.858 217.408 140.858 217.335 140.712C215.436 138.74 214.341 135.818 214.414 133.042C214.414 132.823 214.633 132.677 214.779 132.677C214.998 132.677 215.144 132.823 215.144 133.042C215.071 135.672 216.021 138.302 217.847 140.201C217.993 140.347 217.993 140.566 217.847 140.712C217.847 140.712 217.701 140.785 217.555 140.785L217.628 140.858Z" fill="#4C4C4C"/>
<path d="M246.116 140.42C245.97 140.42 245.897 140.42 245.824 140.274C245.677 140.128 245.75 139.909 245.897 139.763C249.038 137.498 251.083 133.846 251.375 129.902C251.375 129.682 251.594 129.536 251.74 129.536C251.959 129.536 252.105 129.756 252.105 129.902C251.813 133.992 249.622 137.864 246.335 140.274C246.335 140.274 246.189 140.274 246.116 140.274V140.42Z" fill="#4C4C4C"/>
<path d="M215.436 227.052C215.217 227.052 215.071 226.906 215.071 226.687C213.537 202.363 215.875 175.409 221.499 152.692C221.499 152.473 221.718 152.4 221.937 152.4C222.157 152.4 222.23 152.619 222.23 152.838C216.678 175.482 214.341 202.363 215.875 226.614C215.875 226.833 215.728 226.979 215.509 226.979L215.436 227.052Z" fill="#333333"/>
<path d="M255.027 226.03C254.808 226.03 254.662 225.811 254.662 225.664C256.488 196.665 254.078 171.903 247.43 152.034C247.43 151.815 247.43 151.596 247.65 151.596C247.869 151.596 248.088 151.596 248.088 151.815C254.808 171.757 257.219 196.665 255.392 225.738C255.392 225.957 255.246 226.103 255.027 226.103V226.03Z" fill="#333333"/>
<path d="M207.84 165.986C207.767 165.986 207.62 165.986 207.547 165.84C207.401 165.694 207.401 165.475 207.547 165.329C212.441 161.019 215.509 155.541 217.847 150.72C217.92 150.501 218.139 150.427 218.358 150.574C218.577 150.647 218.65 150.866 218.504 151.085C216.167 155.979 213.026 161.53 208.059 165.913C208.059 165.913 207.913 165.986 207.84 165.986Z" fill="#333333"/>
<path d="M261.163 162.845C261.163 162.845 261.163 162.845 261.09 162.845C256.196 161.53 251.229 154.08 249.914 149.551C249.914 149.332 249.914 149.186 250.206 149.113C250.425 149.113 250.571 149.113 250.645 149.405C251.959 154.299 256.999 161.019 261.236 162.188C261.455 162.188 261.528 162.48 261.528 162.626C261.528 162.772 261.309 162.918 261.163 162.918V162.845Z" fill="#333333"/>
<path d="M202.946 350.5C202.58 349.915 202.507 349.185 202.727 348.527C203.457 346.628 222.376 333.991 221.645 334.503C225.152 336.694 229.753 335.598 231.507 333.626C232.748 336.183 236.254 345.386 232.748 346.336C230.703 346.92 204.48 353.056 202.873 350.5H202.946Z" fill="#333333"/>
<path d="M205.721 351.449C204.114 351.449 202.946 351.23 202.653 350.719C202.215 350.061 202.142 349.185 202.434 348.381C203.092 346.555 217.774 336.694 221.061 334.503L221.499 334.137C221.645 334.137 221.718 334.064 221.718 334.064H222.01V334.21C225.371 336.256 229.68 335.014 231.214 333.334L231.579 332.896L231.799 333.407C232.821 335.598 235.524 342.538 234.209 345.386C233.917 346.044 233.479 346.409 232.821 346.628C232.602 346.628 213.391 351.376 205.648 351.376L205.721 351.449ZM203.311 350.28C204.553 352.326 228.438 347.139 232.748 345.898C233.186 345.752 233.479 345.532 233.698 345.094C234.72 342.83 232.748 336.986 231.506 334.21C229.534 335.963 225.224 336.986 221.791 334.868C219.381 336.402 203.749 347.066 203.238 348.6C203.019 349.185 203.092 349.769 203.384 350.28H203.311Z" fill="#FFFFFB"/>
<path d="M213.026 345.825C212.295 345.825 211.419 345.605 210.761 345.24C210.104 344.948 209.3 344.437 209.154 343.706C209.081 343.341 209.3 342.903 209.666 342.83C210.031 342.757 210.469 342.976 210.542 343.341C210.542 343.414 210.834 343.706 211.492 343.998C212.295 344.364 213.099 344.437 213.318 344.291C213.683 344.144 214.121 344.291 214.268 344.656C214.414 345.021 214.268 345.459 213.902 345.605C213.61 345.751 213.318 345.751 212.953 345.751L213.026 345.825Z" fill="#FFFFFB"/>
<path d="M216.897 342.976C215.364 342.976 213.903 342.172 213.099 340.857C212.88 340.492 213.026 340.054 213.318 339.835C213.683 339.616 214.122 339.762 214.341 340.054C214.925 341.003 216.094 341.588 217.263 341.442C217.701 341.442 218.066 341.661 218.066 342.099C218.066 342.537 217.847 342.903 217.409 342.903C217.263 342.903 217.044 342.903 216.897 342.903V342.976Z" fill="#FFFFFB"/>
<path d="M220.33 340.273C218.943 340.273 217.628 339.762 216.605 338.812C216.313 338.52 216.313 338.082 216.605 337.789C216.897 337.497 217.336 337.497 217.628 337.789C218.504 338.593 219.673 338.958 220.769 338.812C221.207 338.812 221.572 339.031 221.572 339.469C221.572 339.908 221.353 340.273 220.915 340.273C220.696 340.273 220.55 340.273 220.33 340.273Z" fill="#FFFFFB"/>
<path d="M225.517 347.651C224.494 345.825 226.101 344.291 227.781 343.195C235.67 337.936 244.655 332.092 244.655 332.092C248.088 334.429 252.763 333.407 254.516 331.508C255.538 333.772 259.045 343.414 255.392 344.291C253.274 344.802 226.977 350.207 225.517 347.651Z" fill="#333333"/>
<path d="M228.877 348.673C226.905 348.673 225.517 348.454 225.152 347.87C224.202 346.263 225.005 344.583 227.562 342.903C235.378 337.716 244.363 331.873 244.436 331.8L244.655 331.654L244.874 331.8C248.161 334.064 252.617 332.968 254.297 331.288L254.662 330.85L254.881 331.361C255.904 333.626 258.387 340.565 256.999 343.414C256.707 344.071 256.196 344.51 255.539 344.656C255.319 344.656 237.058 348.673 228.95 348.673H228.877ZM225.809 347.431C227.051 349.55 250.791 345.021 255.319 343.925C255.758 343.779 256.123 343.56 256.342 343.122C257.438 340.857 255.612 335.087 254.443 332.165C252.398 333.845 248.088 334.722 244.728 332.603C243.34 333.48 235.232 338.812 228.073 343.56C225.882 345.021 225.225 346.263 225.955 347.505L225.809 347.431Z" fill="#FFFFFB"/>
<path d="M235.232 344.072C235.232 344.072 235.159 344.072 235.086 344.072C234.209 343.926 231.58 343.56 231.433 341.296C231.433 340.858 231.726 340.565 232.091 340.492C232.529 340.492 232.821 340.785 232.894 341.15C232.894 341.661 233.26 342.246 235.305 342.611C235.743 342.611 235.962 343.049 235.889 343.487C235.889 343.853 235.524 344.145 235.159 344.145L235.232 344.072Z" fill="#FFFFFB"/>
<path d="M238.957 341.15C237.423 341.15 235.962 340.273 235.086 338.958C234.867 338.593 234.94 338.155 235.305 337.936C235.67 337.716 236.108 337.789 236.328 338.155C236.912 339.031 237.935 339.616 239.03 339.689C239.468 339.689 239.761 340.054 239.761 340.492C239.761 340.857 239.395 341.223 239.03 341.223L238.957 341.15Z" fill="#FFFFFB"/>
<path d="M242.098 338.593C240.856 338.593 239.395 337.789 238.811 337.059C238.592 336.694 238.665 336.255 238.957 336.036C239.322 335.817 239.761 335.89 239.98 336.182C240.345 336.694 241.733 337.278 242.244 337.059C242.609 336.913 243.048 337.059 243.194 337.497C243.34 337.862 243.194 338.301 242.756 338.447C242.536 338.52 242.244 338.593 242.025 338.593H242.098Z" fill="#FFFFFB"/>
<path d="M62.8182 50.7597C61.6495 53.9737 71.7298 58.1373 83.0519 58.1373C94.3739 58.1373 105.331 53.6815 103.505 50.7597C101.825 48.057 94.447 50.0292 83.0519 50.0292C71.6567 50.0292 64.2792 46.3769 62.7452 50.7597H62.8182Z" fill="#CDCDCD"/>
<path d="M83.0518 58.5025C92.8399 58.5025 102.19 55.2155 103.797 52.3667C104.162 51.7823 104.162 51.1249 103.797 50.6136C102.628 48.7144 99.0488 48.9335 93.2051 49.2988C90.2833 49.5179 86.9232 49.737 83.0518 49.737C79.1803 49.737 75.3089 49.2257 72.3871 48.8605C67.0548 48.13 63.5486 47.6918 62.4529 50.6866C62.2338 51.344 62.3799 52.0015 62.8182 52.7319C64.7904 55.5076 73.0445 58.5756 82.9787 58.5756L83.0518 58.5025ZM98.7566 49.664C101.094 49.664 102.628 49.9562 103.285 50.9058C103.505 51.271 103.505 51.5632 103.285 52.0015C101.825 54.6311 92.4746 57.7721 83.1248 57.7721C73.775 57.7721 65.3748 54.9233 63.4756 52.2206C63.1104 51.7093 63.0373 51.271 63.1834 50.8327C64.0599 48.2761 67.2009 48.7144 72.3871 49.4449C75.3089 49.8101 79.0343 50.3214 83.1979 50.3214C87.3615 50.3214 90.4294 50.1023 93.3512 49.8831C95.4695 49.737 97.2957 49.5909 98.8296 49.5909L98.7566 49.664Z" fill="#CDCDCD"/>
<path d="M75.6011 41.7749C75.6742 50.0291 78.4499 56.1649 63.2564 63.3234C72.3141 75.8142 81.2256 80.4161 81.2256 80.4161C81.2256 80.4161 100.291 71.7967 106.865 66.1722C103.431 63.6886 99.9254 61.8625 96.7113 59.598C90.5025 55.2153 94.1547 45.5002 92.9129 41.921L75.5281 41.7749H75.6011Z" fill="#FDA98B"/>
<path d="M72.8254 13.5064C80.203 3.20696 97.5879 5.8366 99.6332 21.6145C101.605 37.3193 94.0817 49.664 89.6259 50.8327C85.6084 51.9284 81.6639 52.4397 78.3768 50.1753C69.6114 44.2586 66.2513 22.7832 72.8984 13.5064H72.8254Z" fill="#FDA98B"/>
<path d="M94.3009 2.98773C105.988 12.3376 102.409 18.4004 99.4141 32.9365C100.656 25.0475 91.3791 12.4106 92.913 15.6246C97.8071 25.778 90.6487 16.282 80.2762 20.5917C79.5457 20.8839 78.9613 20.7378 76.0395 19.9343C73.0446 19.0578 69.4654 30.8912 69.4654 30.8912C66.3975 25.7049 66.0323 16.9395 66.0323 16.9395C66.9819 -0.372369 88.4573 -3.29419 89.9182 3.13383C90.7947 3.13383 92.9131 1.89205 94.3009 2.98773Z" fill="#7B3B23"/>
<path d="M89.6988 3.42609C89.4797 3.42609 89.3336 3.57219 89.3336 3.79132C89.3336 4.66787 89.3337 7.80883 86.631 10.5115C86.4849 10.6576 86.4849 10.8768 86.631 11.0228C87.7997 12.1916 91.598 3.28 89.6988 3.42609Z" fill="#682C1C"/>
<path d="M98.0991 14.7481C98.9756 14.602 97.4417 8.46615 92.4015 5.32518C91.9633 5.10604 91.598 5.69041 92.0363 5.98259C95.0312 7.80873 97.1495 11.0227 97.6608 14.4559C97.6608 14.675 97.8799 14.8211 98.0991 14.7481Z" fill="#682C1C"/>
<path d="M92.4747 14.2368C92.1825 14.0177 91.0137 12.7029 91.525 10.8767C91.6711 10.4385 90.9407 10.2193 90.7946 10.6576C90.2102 12.7759 91.452 14.456 92.0364 14.8212C92.4747 15.0403 92.8399 14.456 92.4016 14.1638L92.4747 14.2368Z" fill="#682C1C"/>
<path d="M99.7062 22.8562C100.729 18.5465 101.021 18.3273 100.51 18.2543C99.9253 18.1082 99.8523 18.9848 98.9757 22.7101C98.8296 23.1484 99.5601 23.3675 99.7062 22.8562Z" fill="#682C1C"/>
<path d="M78.523 4.52173C80.4953 2.62255 84.805 1.52686 87.2885 3.13387C87.4346 3.20691 87.6537 3.13387 87.7998 2.98778C88.5303 1.81904 81.8831 0.21204 78.0117 4.01041C77.6464 4.37564 78.1578 4.88696 78.523 4.52173Z" fill="#682C1C"/>
<path d="M76.9159 10.5846C79.3995 8.02799 82.9058 8.8315 84.6588 10.0002C84.8049 10.1463 85.024 10.0002 85.1701 9.92718C85.7545 9.12368 79.9839 6.34794 76.4047 10.1463C76.0394 10.5115 76.6238 11.0229 76.9159 10.6576V10.5846Z" fill="#682C1C"/>
<path d="M84.8049 5.17918C81.737 4.37568 81.9561 6.494 82.7596 5.98268C83.5631 5.47136 85.3892 5.83659 85.9736 6.78619C86.4119 7.58969 87.5806 5.90964 84.8049 5.17918Z" fill="#682C1C"/>
<path d="M80.3491 19.4229C79.8378 17.8159 80.6413 15.6976 82.1022 14.9671C82.5405 14.748 82.1752 14.0906 81.737 14.3097C79.9839 15.2593 79.0343 17.6698 79.6917 19.6421C79.8378 20.0803 80.4952 19.8612 80.4221 19.4229H80.3491Z" fill="#682C1C"/>
<path d="M90.7946 18.7657C90.7946 16.2091 86.8501 12.9951 86.558 14.3099C86.558 14.5291 86.631 14.6751 86.8502 14.7482C88.0189 14.9673 90.0641 17.3778 90.0641 18.7657C90.0641 20.1536 90.7946 19.277 90.7946 18.7657Z" fill="#682C1C"/>
<path d="M75.3089 18.8386C74.2132 17.4507 73.4097 15.6976 74.3593 12.9949C74.5053 12.5567 73.848 12.2645 73.7019 12.7758C72.6062 15.8437 73.6289 17.7429 74.7976 19.2769C75.0898 19.6421 75.6741 19.2769 75.3819 18.8386H75.3089Z" fill="#682C1C"/>
<path d="M69.5381 22.9291C70.2686 22.6369 69.5382 22.783 68.5886 18.5464C68.4425 18.1081 67.7851 18.2542 67.8581 18.6925C68.0042 19.3499 68.8807 23.1482 69.5381 22.8561V22.9291Z" fill="#682C1C"/>
<path d="M68.4426 13.7985C68.8078 11.5341 70.634 8.46613 72.8253 7.37045C72.9714 7.2974 73.1176 7.07827 72.9715 6.85913C72.0219 4.8869 66.2512 13.7985 68.0043 14.0907C68.2235 14.0907 68.3696 14.0176 68.4426 13.7985Z" fill="#682C1C"/>
<path d="M101.386 28.6268C98.3914 27.7502 98.1723 34.0321 98.1723 37.1001C98.1723 43.2359 106.061 30.0146 101.386 28.6268Z" fill="#FDA98B"/>
<path d="M100.729 31.6947C100.656 31.4025 100.217 31.5486 100.291 31.8408C100.802 33.5939 100.291 34.5434 99.5601 34.9817C99.487 34.9817 99.414 35.2009 99.487 35.2739C99.8523 36.0044 101.459 34.1782 100.729 31.6947Z" fill="#EE795C"/>
<path d="M67.9314 28.5538C70.9262 27.6772 71.1454 33.9591 71.1454 37.0271C71.1454 43.1629 63.2564 29.9416 67.9314 28.5538Z" fill="#FDA98B"/>
<path d="M68.5888 31.6217C68.6619 31.3295 69.1001 31.4756 69.0271 31.7678C68.5158 33.5209 69.0271 34.4704 69.7576 34.9087C69.8306 34.9087 69.9036 35.1279 69.8306 35.2009C69.4654 35.9314 67.8584 34.1052 68.5888 31.6217Z" fill="#EE795C"/>
<path d="M91.598 31.2563C92.5476 31.2563 93.3511 27.531 90.9406 27.531C88.5301 27.531 89.991 31.2563 91.598 31.2563Z" fill="#333333"/>
<path d="M76.989 31.4026C76.0394 31.4026 75.2358 27.6772 77.6463 27.6772C80.0568 27.6772 78.596 31.4026 76.989 31.4026Z" fill="#333333"/>
<path d="M92.8399 48.4221C92.6938 48.349 92.5477 48.4221 92.4747 48.4221C89.9181 51.7822 80.7873 52.8778 76.4776 48.1299C76.2585 47.8377 75.8202 48.2029 76.0394 48.4951C82.4674 55.5075 94.5199 49.5908 92.8399 48.349V48.4221Z" fill="#EE795C"/>
<path d="M88.384 23.8057C91.598 22.4908 97.953 25.1935 96.1268 25.8509C95.5424 26.0701 93.6432 25.3396 92.9858 25.2666C91.5979 25.1205 89.1144 25.7048 88.2378 24.9744C87.8726 24.6822 87.9457 23.9517 88.384 23.8057Z" fill="#7B3B23"/>
<path d="M81.0796 24.8283C80.2761 25.6318 77.7195 25.1205 76.3316 25.2665C75.6742 25.3396 73.775 26.1431 73.1906 25.997C71.3644 25.4126 77.5733 22.4908 80.8604 23.6595C81.2987 23.8056 81.3718 24.463 81.0065 24.8283H81.0796Z" fill="#7B3B23"/>
<path d="M85.9006 37.3923C85.9737 36.9541 85.3163 36.9541 84.878 36.808C83.271 36.4427 83.198 37.2462 83.9284 30.453C84.0745 29.1382 84.2936 28.4077 83.8553 28.4077C83.4171 28.4077 83.5632 28.919 83.344 30.453C82.5405 37.8306 82.5405 36.9541 85.5354 37.6845C85.6815 37.6845 85.8276 37.6845 85.9006 37.4654V37.3923Z" fill="#EE795C"/>
<path d="M88.6762 43.1627C89.1145 42.5053 87.7996 42.6514 79.8376 41.8479C77.7924 41.6288 84.8779 48.8603 88.6762 43.1627Z" fill="white"/>
<path d="M57.3397 337.391C54.5639 339.509 51.569 340.02 47.6976 337.829L48.282 318.764L60.5537 319.129L57.3397 337.391Z" fill="#FDA98B"/>
<path d="M46.0907 349.443C47.4055 350.393 47.1863 350.101 75.0167 351.416C80.5682 351.708 80.8604 348.786 77.9386 347.033C73.5558 344.33 57.7049 335.565 56.6823 336.149C55.8057 336.66 53.8335 337.756 52.2996 337.756C50.2543 337.756 47.6247 337.391 47.4786 337.756C45.5794 341.189 42.9497 347.179 46.1637 349.516L46.0907 349.443Z" fill="#F2F2F2"/>
<path d="M75.6742 351.781C78.0847 351.781 79.6917 351.124 80.0569 349.955C80.4222 348.859 79.6917 347.617 78.1578 346.668C75.8934 345.28 57.9972 334.907 56.5363 335.784C55.7328 336.222 53.7605 337.318 52.2996 337.318C51.423 337.318 50.5465 337.318 49.67 337.245C47.9169 337.099 47.3325 337.099 47.1134 337.464C45.2142 340.97 42.5114 347.179 45.8715 349.663C46.602 350.198 51.423 350.661 60.3346 351.05C64.0599 351.197 68.8079 351.416 74.9438 351.708C75.1629 351.708 75.382 351.708 75.6012 351.708L75.6742 351.781ZM56.9015 336.441C58.3624 336.441 72.6794 344.184 77.7195 347.325C78.8883 348.056 79.5456 349.005 79.3265 349.736C79.0343 350.685 77.4273 351.124 75.0168 351.05C68.8809 350.758 64.133 350.539 60.3346 350.393C47.3325 349.809 47.1864 349.809 46.3099 349.151C43.3881 347.033 45.8715 341.262 47.6977 337.975C47.9899 337.975 48.8665 337.975 49.5969 337.975C50.4735 337.975 51.423 338.121 52.2996 338.048C53.9066 338.048 55.8789 337.026 56.9015 336.368V336.441Z" fill="#CDCDCD"/>
<path d="M44.7757 344.257C44.5566 345.061 44.4105 345.937 44.4105 346.814C44.4105 347.69 44.7027 348.64 45.3601 349.297C46.0175 349.955 46.9672 350.32 47.7707 350.539C48.6472 350.685 49.4507 350.758 50.3273 350.904C53.6874 351.269 57.0474 351.489 60.4805 351.708C63.8406 351.854 67.2738 352 70.6339 352C72.314 352 73.994 352 75.7471 351.781C76.6237 351.708 77.4272 351.635 78.3037 351.416L78.5959 351.269C78.669 351.269 78.8151 351.123 78.8881 351.05C79.0342 350.904 79.1803 350.758 79.3264 350.539C79.6185 350.174 79.7646 349.736 79.6916 349.297C79.6916 349.736 79.5455 350.101 79.2533 350.466C79.1072 350.612 78.9612 350.758 78.8151 350.904C78.742 350.904 78.669 350.977 78.5229 351.05H78.2307C77.4272 351.343 76.5506 351.343 75.7471 351.416C74.0671 351.416 72.387 351.416 70.7069 351.416C67.3468 351.343 63.9138 351.196 60.5537 350.977C57.1936 350.831 53.8334 350.612 50.4003 350.32C49.5968 350.247 48.7202 350.247 47.9167 350.101C47.1132 349.955 46.2367 349.662 45.6523 349.078C44.9949 348.494 44.7758 347.69 44.6297 346.814C44.5566 346.01 44.6297 345.134 44.8488 344.33L44.7757 344.257Z" fill="#CDCDCD"/>
<path d="M63.1832 339.509C62.2336 340.751 60.9188 341.774 59.4579 342.358L63.1832 339.509Z" fill="#F2E8DE"/>
<path d="M59.5311 342.723C61.0651 342.139 62.4529 341.043 63.4025 339.728L62.8182 339.29C61.8686 340.532 60.6268 341.481 59.2389 342.066L59.5311 342.723Z" fill="#CDCDCD"/>
<path d="M65.8861 341.116C65.8861 342.212 63.6947 343.6 62.6721 344.111L65.8861 341.116Z" fill="#F2E8DE"/>
<path d="M62.8182 344.476C62.8182 344.476 66.3974 342.869 66.2513 341.116H65.5208C65.5208 341.92 63.7677 343.235 62.526 343.819L62.8182 344.476Z" fill="#CDCDCD"/>
<path d="M68.808 342.796C68.1506 344.33 66.4705 345.061 65.2287 345.572L68.808 342.796Z" fill="#F2E8DE"/>
<path d="M65.3748 345.937C66.6896 345.353 68.4427 344.622 69.1001 343.015L68.4427 342.723C67.8583 344.111 66.3243 344.768 65.1556 345.28V345.645C65.2287 345.645 65.3748 346.01 65.3748 346.01V345.937Z" fill="#CDCDCD"/>
<path d="M71.8758 349.663C74.1402 349.663 76.6237 349.443 77.062 347.252L76.3316 347.106C75.8933 349.005 73.2636 349.005 70.8531 348.932C70.5609 348.932 70.1957 348.932 69.9035 348.932V349.663C70.1957 349.663 70.4879 349.663 70.8531 349.663C71.1453 349.663 71.5106 349.663 71.8758 349.663Z" fill="#CDCDCD"/>
<path d="M102.774 344.111C102.555 344.914 102.409 345.791 102.409 346.667C102.409 347.544 102.701 348.494 103.359 349.151C104.016 349.808 104.965 350.174 105.769 350.393C106.646 350.539 107.449 350.612 108.326 350.758C111.686 351.123 115.046 351.342 118.479 351.562C121.839 351.708 125.272 351.854 128.632 351.854C130.312 351.854 131.992 351.854 133.746 351.635C134.622 351.562 135.426 351.488 136.302 351.269L136.594 351.123C136.667 351.123 136.813 350.977 136.887 350.904C137.033 350.758 137.179 350.612 137.325 350.393C137.617 350.028 137.763 349.589 137.69 349.151C137.69 349.589 137.544 349.954 137.252 350.32C137.106 350.466 136.959 350.612 136.813 350.758C136.74 350.758 136.667 350.831 136.521 350.904H136.229C135.426 351.196 134.549 351.196 133.746 351.269C132.065 351.269 130.385 351.269 128.705 351.269C125.345 351.196 121.912 351.05 118.552 350.831C115.192 350.685 111.832 350.466 108.399 350.174C107.595 350.101 106.719 350.101 105.915 349.954C105.112 349.808 104.235 349.516 103.651 348.932C102.993 348.347 102.774 347.544 102.628 346.667C102.555 345.864 102.628 344.987 102.847 344.184L102.774 344.111Z" fill="#CDCDCD"/>
<path d="M115.557 337.099L105.842 338.048L104.089 320.006L115.995 320.298L115.557 337.099Z" fill="#FDA98B"/>
<path d="M104.089 349.297C105.404 350.247 105.185 349.955 133.015 351.27C138.566 351.562 138.859 348.64 135.937 346.887C131.554 344.184 115.703 335.419 114.68 336.003C111.832 337.683 110.371 337.975 105.915 337.318C105.185 337.245 100.29 346.522 104.089 349.297Z" fill="#F2F2F2"/>
<path d="M133.672 351.634C136.083 351.634 137.69 350.977 138.055 349.808C138.42 348.713 137.69 347.471 136.156 346.521C133.892 345.133 115.995 334.761 114.534 335.637C111.832 337.171 110.517 337.537 105.988 336.952C105.038 336.806 103.504 340.532 103.504 340.678C102.701 342.65 101.167 347.544 103.943 349.589C104.673 350.125 109.494 350.587 118.406 350.977C122.131 351.123 126.879 351.342 133.015 351.634C133.234 351.634 133.453 351.634 133.672 351.634ZM114.9 336.295C116.36 336.295 130.677 344.038 135.718 347.179C136.886 347.909 137.544 348.859 137.325 349.589C137.032 350.539 135.425 350.977 133.015 350.904C126.879 350.612 122.131 350.393 118.333 350.247C105.331 349.662 105.185 349.662 104.308 349.005C103.358 348.347 102.92 347.106 102.993 345.426C103.212 342.065 105.331 338.121 105.915 337.683C110.298 338.267 111.905 338.048 114.827 336.295H114.9Z" fill="#CDCDCD"/>
<path d="M117.383 342.577C117.383 342.577 117.456 342.577 117.529 342.577C119.063 341.993 120.451 340.897 121.401 339.582C121.547 339.436 121.474 339.217 121.401 339.071C121.255 338.925 121.035 338.998 120.889 339.071C119.94 340.313 118.698 341.262 117.31 341.847C117.091 341.92 117.018 342.139 117.091 342.285C117.091 342.431 117.31 342.504 117.456 342.504L117.383 342.577Z" fill="#CDCDCD"/>
<path d="M120.67 344.33C120.67 344.33 120.743 344.33 120.816 344.33C120.816 344.33 124.396 342.723 124.249 340.97C124.249 340.751 124.03 340.605 123.884 340.605C123.665 340.605 123.519 340.824 123.519 340.97C123.519 341.774 121.766 343.015 120.524 343.6C120.305 343.673 120.232 343.892 120.305 344.111C120.305 344.257 120.524 344.33 120.67 344.33Z" fill="#CDCDCD"/>
<path d="M123.373 345.791C124.688 345.207 126.441 344.476 127.098 342.869C127.171 342.65 127.098 342.504 126.879 342.358C126.66 342.285 126.514 342.358 126.368 342.577C125.784 343.965 124.25 344.622 123.081 345.133V345.499C123.154 345.499 123.3 345.864 123.3 345.864L123.373 345.791Z" fill="#CDCDCD"/>
<path d="M129.874 349.517C132.138 349.517 134.622 349.297 135.06 347.106C135.06 346.887 134.987 346.741 134.768 346.668C134.549 346.668 134.403 346.741 134.33 346.96C133.892 348.859 131.262 348.859 128.851 348.786C128.559 348.786 128.194 348.786 127.902 348.786C127.683 348.786 127.537 348.932 127.537 349.151C127.537 349.37 127.683 349.517 127.902 349.517C128.194 349.517 128.486 349.517 128.851 349.517C129.144 349.517 129.509 349.517 129.874 349.517Z" fill="#CDCDCD"/>
<path d="M47.8438 139.364C47.7708 142.651 43.0228 333.739 45.6525 334.031C47.5517 334.177 60.0424 335.126 60.4807 333.227C75.382 265.222 82.3214 198.896 82.3214 198.896C90.5755 251.27 81.3718 250.54 102.555 332.058C102.993 333.739 117.895 334.688 117.895 332.205C117.895 316.865 117.091 130.745 117.895 143.966C108.107 143.308 47.7708 139.364 47.7708 139.364H47.8438Z" fill="#51BCFE"/>
<path d="M53.8336 334.761C57.2667 334.761 60.5538 334.469 60.846 333.3C73.9211 273.841 80.9335 214.893 82.3944 201.672C85.0241 218.911 85.6815 230.16 86.3389 241.117C87.5076 261.058 88.6764 279.904 102.263 332.205C102.701 333.885 111.394 334.469 115.265 333.958C117.383 333.665 118.406 333.154 118.406 332.278C118.333 313.943 117.676 158.137 118.26 144.404H118.479V143.966C118.479 143.235 118.479 142.943 118.041 142.943C117.822 142.943 117.749 142.943 117.676 143.601C106.573 142.87 48.7204 139.072 48.063 139.072H47.6977V140.167C47.4056 153.097 46.3099 198.677 45.5064 242.066C43.8994 334.25 45.0681 334.396 45.7986 334.469C46.0908 334.469 50.1814 334.907 53.9797 334.907L53.8336 334.761ZM82.2484 196.047L81.9562 198.823C81.9562 199.481 74.7977 265.952 60.1155 333.154C59.8964 334.25 51.5692 334.177 45.8716 333.665C44.2646 329.064 46.1638 226.873 48.2091 140.094V139.729C53.2493 140.094 106.792 143.528 117.383 144.258C117.383 145.354 117.383 147.253 117.31 150.759C117.31 155.288 117.237 162.008 117.237 170.701C117.237 185.456 117.237 206.128 117.237 232.205C117.31 275.156 117.529 319.641 117.529 332.205C117.529 332.424 117.164 332.716 115.995 333.008C111.905 333.885 103.285 332.862 102.847 331.985C89.2607 279.758 88.1651 260.985 86.9963 241.044C86.3389 229.575 85.6085 217.669 82.6136 198.823L82.1753 196.047H82.2484Z" fill="#187EBC"/>
<path d="M82.1752 192.03C82.3943 192.03 82.5404 191.884 82.5404 191.665C84.1474 177.932 83.6361 169.167 83.1978 162.812C82.8326 157.333 82.6134 154.046 84.1474 151.343C84.2204 151.124 84.1474 150.905 84.0013 150.832C83.7822 150.759 83.563 150.832 83.4899 150.978C81.8829 153.9 82.1021 157.26 82.4674 162.885C82.9056 169.24 83.4169 177.932 81.8099 191.592C81.8099 191.811 81.956 191.957 82.1752 192.03Z" fill="#187EBC"/>
<path d="M105.112 330.525C105.112 330.525 105.112 330.525 105.185 330.525C105.404 330.525 105.477 330.232 105.477 330.086C95.7617 292.176 92.986 259.67 90.9407 235.93C89.6259 220.299 88.6763 208.977 86.2658 202.256C86.2658 202.037 85.9736 201.964 85.7545 202.037C85.5353 202.037 85.4623 202.329 85.5353 202.548C87.8728 209.196 88.8224 220.445 90.1372 236.003C92.1825 259.743 94.9582 292.322 104.673 330.305C104.673 330.451 104.892 330.598 105.038 330.598L105.112 330.525Z" fill="#187EBC"/>
<path d="M116.507 188.597C116.653 188.597 116.726 188.597 116.799 188.451C116.945 188.305 116.872 188.012 116.726 187.939C108.18 181.657 108.107 179.539 108.034 167.925C108.034 166.537 108.034 165.076 108.034 163.469C108.034 163.25 107.887 163.104 107.668 163.104C107.449 163.104 107.303 163.25 107.303 163.469C107.303 165.076 107.303 166.61 107.303 167.925C107.449 179.612 107.449 182.023 116.288 188.524C116.288 188.524 116.434 188.597 116.507 188.597Z" fill="#187EBC"/>
<path d="M48.0629 188.451H49.5238C59.3119 188.158 59.312 187.866 59.5311 174.426C59.5311 172.673 59.5311 170.7 59.6041 168.436C59.6041 168.217 59.458 168.071 59.2389 168.071C59.0198 168.071 58.8737 168.217 58.8737 168.436C58.8737 170.7 58.8006 172.673 58.8006 174.499C58.7276 181.073 58.6545 184.433 57.5588 186.04C56.4631 187.574 54.1988 187.647 49.5969 187.793H48.136C47.9169 187.793 47.7708 188.012 47.7708 188.231C47.7708 188.451 47.9169 188.597 48.136 188.597L48.0629 188.451Z" fill="#187EBC"/>
<path d="M82.029 197.581C82.2481 197.581 82.4673 197.435 82.4673 197.216C82.9786 195.39 84.6587 193.856 86.5579 193.637C86.777 193.637 86.9231 193.418 86.9231 193.199C86.9231 192.98 86.704 192.833 86.4848 192.833C84.5126 193.053 82.6864 194.514 81.956 196.413C79.9837 192.76 77.135 192.03 75.1628 192.614C74.9436 192.614 74.8706 192.907 74.8706 193.053C74.8706 193.272 75.1627 193.345 75.3088 193.345C77.0619 192.833 79.6916 193.564 81.4447 197.289C81.5177 197.508 81.7368 197.581 81.8829 197.581H82.029Z" fill="#187EBC"/>
<path d="M105.331 78.2979C104.235 100.431 107.011 167.925 129.582 175.083C162.452 181.731 141.123 151.782 142.803 136.442C144.118 124.171 136.156 113.433 136.886 105.836C138.347 89.1087 133.234 81.2928 127.463 74.7917C124.249 71.1394 122.058 67.7063 116.726 67.1949C112.051 66.7567 105.55 73.8421 105.331 78.2979Z" fill="#F2F2F2"/>
<path d="M137.69 176.398C141.634 176.398 144.483 175.448 146.163 173.622C150.108 169.386 147.989 161.278 145.725 152.731C144.191 146.961 142.657 141.044 143.095 136.515C143.899 129.503 141.634 123.002 139.662 117.304C138.128 112.921 136.813 109.123 137.106 105.836C138.64 88.5972 133.015 80.6352 127.61 74.4993C127.171 74.0611 126.806 73.5498 126.368 73.1115C123.665 69.9705 121.401 67.2678 116.58 66.8296C114.608 66.6835 112.27 67.6331 109.933 69.6783C107.011 72.2349 104.892 75.6681 104.819 78.2977C104.235 91.0077 104.966 113.36 108.106 132.352C110.955 149.809 117.018 171.504 129.363 175.448C132.504 176.106 135.279 176.398 137.617 176.398H137.69ZM116.288 67.56C116.434 67.56 116.58 67.56 116.653 67.56C121.109 67.9983 123.373 70.5549 125.93 73.6228C126.295 74.0611 126.733 74.5724 127.171 75.0107C132.504 81.0004 137.982 88.8893 136.521 105.836C136.229 109.269 137.544 113.141 139.078 117.596C140.977 123.221 143.168 129.576 142.438 136.442C141.927 141.117 143.534 147.107 145.068 152.95C147.186 160.985 149.377 169.24 145.652 173.184C143.095 175.96 137.836 176.471 129.582 174.791C108.545 168.144 104.308 105.763 105.623 78.3708C105.769 76.0333 107.741 72.6732 110.517 70.2627C112.489 68.5096 114.607 67.56 116.288 67.56Z" fill="#CDCDCD"/>
<path d="M96.7113 59.5982C92.1825 70.7011 74.3593 70.7742 69.7575 59.5982C64.6443 59.8173 52.9569 63.2505 49.8159 65.4418C42.6575 70.482 36.0834 169.24 46.4559 176.69C71.5836 178.59 92.5477 177.129 117.895 174.207C133.453 169.97 119.136 68.3637 118.917 67.6332C112.854 64.4192 95.9809 59.306 96.7113 59.5982Z" fill="#F2F2F2"/>
<path d="M69.027 177.932C85.0971 177.932 100.437 176.617 117.968 174.572C134.111 170.189 119.575 68.5098 119.282 67.5602V67.4141L119.063 67.341C114.973 65.2227 100.583 60.1826 97.1496 59.3791L96.7844 59.233C96.6383 59.233 96.4922 59.233 96.4922 59.233L96.3461 59.3791V59.5251C93.9356 65.3688 88.0919 67.4871 83.344 67.4871C78.596 67.4871 72.6793 65.3688 70.1957 59.3791V59.1599C70.1227 59.1599 69.8305 59.1599 69.8305 59.1599C64.7173 59.379 52.8839 62.8852 49.743 65.0766C45.1411 68.2906 41.1236 107.005 40.8314 136.881C40.7584 150.248 41.2697 173.33 46.3098 176.91H46.3829H46.4559C54.3448 177.494 61.7225 177.786 69.027 177.786V177.932ZM118.625 67.8523C119.282 72.2351 132.723 169.751 117.821 173.842C92.4746 176.763 71.7297 178.224 46.602 176.325C43.1688 173.622 41.3427 159.306 41.4888 136.954C41.7809 104.448 46.0907 68.5098 50.0351 65.734C53.1031 63.6157 64.3521 60.2556 69.5383 59.9634C71.8027 65.1497 77.062 68.2906 83.344 68.2906C89.5528 68.2906 94.7391 65.1497 96.9304 60.0365C99.1948 60.7669 113.074 65.0036 118.625 67.9254V67.8523Z" fill="#CDCDCD"/>
<path d="M9.12963 117.158C7.88785 119.934 5.69643 127.312 6.42688 130.233C7.01125 132.425 11.321 145.646 20.963 149.883C31.1163 154.265 34.3304 167.121 42.6576 160.62C47.1134 154.923 50.0352 142.724 50.0352 142.724C55.0023 131.329 44.3376 137.465 36.3026 126.289C34.8417 124.244 34.9877 123.294 37.1061 121.541C56.7553 105.252 50.1082 65.588 50.1082 65.588C38.567 64.3462 24.4692 87.7939 21.7665 99.0429C19.8673 106.932 12.2706 110.292 9.12963 117.158Z" fill="#F2F2F2"/>
<path d="M38.2748 162.739C39.6627 162.739 41.1966 162.154 42.8767 160.839C47.3324 155.069 50.1813 143.235 50.3274 142.797C51.5691 139.948 51.9343 138.049 51.3499 136.661C50.6925 135.127 49.0125 134.47 46.8942 133.593C43.9723 132.425 40.0279 130.891 36.5947 126.07C35.2069 124.171 35.353 123.44 37.3252 121.833C56.9014 105.617 50.5465 65.9531 50.4734 65.5879V65.2957H50.1812C37.9096 63.9809 24.0309 88.3782 21.4012 99.0428C20.3786 103.353 17.4568 106.42 14.681 109.269C12.4897 111.607 10.2253 113.944 8.76437 117.012C7.59564 119.569 5.25812 127.165 6.06162 130.306C6.06162 130.452 10.2253 145.573 20.8169 150.175C24.6883 151.855 27.5371 154.777 30.0937 157.406C32.7964 160.255 35.2799 162.739 38.3479 162.739H38.2748ZM42.3654 160.328C37.5444 164.053 34.6225 161.059 30.5319 156.895C27.9753 154.265 25.0535 151.27 21.036 149.517C10.8096 145.062 6.71905 130.306 6.71905 130.16C5.9886 127.458 8.10698 120.226 9.42179 117.377C10.7366 114.455 13.001 112.118 15.1923 109.781C18.0411 106.786 20.963 103.718 22.0586 99.1889C24.9074 87.5747 38.7861 65.2227 49.743 66.0262C50.2543 69.6054 55.2214 106.128 36.8139 121.322C34.5495 123.148 34.4033 124.39 36.0103 126.581C39.5896 131.548 43.6802 133.155 46.6751 134.324C48.7204 135.127 50.1813 135.712 50.6926 136.954C51.2039 138.122 50.8387 139.875 49.6699 142.578C49.6699 142.797 46.7481 154.777 42.3654 160.328Z" fill="#CDCDCD"/>
<path d="M106.865 64.1999C110.006 60.8398 108.326 56.5301 101.24 57.918C100.729 57.9911 100.291 57.6258 100.291 57.1875C100.291 55.5805 105.55 50.9787 103.066 50.6134C97.0036 49.6638 86.5581 67.9253 83.198 67.9253C79.8379 67.9253 76.9161 58.9406 74.4325 55.8727C73.556 54.777 65.8861 45.9385 63.2565 49.5908C61.7956 51.6361 63.2565 53.4622 62.5991 55.7997C61.8686 58.0641 60.1155 53.5353 58.0703 55.4345C55.4406 57.845 55.8058 62.4468 58.0703 65.2226C65.4479 74.4263 98.3915 73.3306 106.938 64.273L106.865 64.1999Z" fill="#F2F2F2"/>
<path d="M80.203 72.016C90.2102 72.016 102.19 69.7516 107.084 64.4923C108.691 62.8122 109.129 60.84 108.326 59.3791C107.303 57.5529 104.673 56.8955 101.094 57.626C100.948 57.626 100.802 57.626 100.729 57.5529C100.729 57.5529 100.583 57.4068 100.583 57.2607C100.583 56.7494 101.459 55.6537 102.19 54.6311C103.359 53.0971 104.308 51.7823 103.943 50.9788C103.797 50.6136 103.505 50.4675 102.993 50.3214C99.1949 49.737 94.1548 55.7268 89.772 61.0591C87.0693 64.2731 84.2935 67.5602 83.1248 67.5602C80.5682 67.5602 78.7421 63.6888 77.1351 60.2556C76.2586 58.4295 75.455 56.7494 74.6515 55.6537C74.6515 55.5807 68.5887 48.2761 64.7904 48.3492C63.9869 48.3492 63.3295 48.7144 62.8912 49.3718C62.0146 50.6136 62.1607 51.8554 62.2338 53.0241C62.3068 53.9006 62.3799 54.7772 62.1607 55.7268C62.0146 56.092 61.9416 56.092 61.9416 56.092C61.7955 56.092 61.3572 55.7998 61.0651 55.5807C60.2616 54.9233 59.0198 53.9737 57.705 55.1424C54.8562 57.7721 55.3675 62.5931 57.705 65.4419C60.7729 69.2402 68.0774 71.5777 77.8656 71.9429C78.596 71.9429 79.3995 71.9429 80.203 71.9429V72.016ZM103.724 58.0642C105.696 58.0642 107.084 58.6486 107.668 59.7443C108.326 60.913 107.887 62.5931 106.573 63.981C102.19 68.6559 90.4294 71.6507 77.9386 71.2125C68.5157 70.8472 61.2111 68.5098 58.2893 65.0036C56.244 62.447 55.7327 58.0642 58.2893 55.7268C59.0197 54.9963 59.7502 55.4346 60.6998 56.1651C61.2842 56.6033 61.7225 56.9686 62.2338 56.8225C62.526 56.7494 62.7451 56.4572 62.8912 55.9459C63.2564 54.8502 63.1103 53.8276 63.0373 52.9511C62.8912 51.8554 62.8182 50.8327 63.5486 49.8101C63.9139 49.2988 64.3521 49.0796 64.9365 49.0796C64.9365 49.0796 64.9365 49.0796 65.0095 49.0796C67.8583 49.0796 72.6793 54.2659 74.1402 56.092C74.9437 57.1147 75.7472 58.7217 76.5507 60.5478C78.2308 64.2001 80.13 68.2906 83.1979 68.2906C86.2658 68.2906 86.9232 65.734 90.4294 61.4974C94.5199 56.6033 99.6332 50.4675 102.993 50.9788C103.139 50.9788 103.285 50.9788 103.359 51.1249C103.578 51.5632 102.409 53.0971 101.678 54.1198C100.729 55.3616 99.9253 56.4572 99.9253 57.1877C99.9253 57.5529 100.071 57.8451 100.364 58.0642C100.656 58.2834 101.021 58.3564 101.313 58.2834C102.19 58.1373 103.066 57.9912 103.797 57.9912L103.724 58.0642Z" fill="#CDCDCD"/>
<path d="M142.073 177.129C138.42 177.494 133.818 177.056 131.992 175.96C132.284 189.035 132.431 182.169 131.262 186.844C130.604 189.473 126.295 198.823 128.121 200.722C129.509 202.183 131.116 197.874 132.358 195.317C134.038 191.811 138.859 198.677 133.234 206.347C132.65 207.077 129.655 210.657 131.992 212.629C134.622 210.438 136.74 207.735 138.274 204.74C136.594 209.853 137.325 213.432 138.493 213.14C140.612 212.702 143.314 194.441 140.173 185.675C139.808 184.652 139.954 184.652 142.073 177.056V177.129Z" fill="#FFA988"/>
<path d="M47.6978 154.996L56.4632 158.137L60.4077 148.714L51.204 144.623L47.6978 154.996Z" fill="#FFA988"/>
<path d="M143.241 175.083C138.786 176.544 132.869 176.325 129.509 175.083C128.924 178.516 129.363 180.27 131.554 182.315C132.65 183.337 145.067 186.698 143.241 175.083Z" fill="#CDCDCD"/>
<path d="M53.7603 157.772C53.0299 158.502 48.8663 158.21 45.0679 156.676C46.7479 154.338 48.8662 146.961 50.2541 141.628C51.1307 141.994 55.8786 145.792 57.1204 146.815C57.9239 147.472 56.0978 155.507 53.8334 157.845L53.7603 157.772Z" fill="#CDCDCD"/>
<path d="M64.8634 174.572C68.9539 174.572 71.9488 173.841 75.9664 172.892C77.4273 172.527 79.1073 172.161 81.0065 171.723C92.4017 169.313 104.235 169.897 113.293 170.701C114.973 170.847 115.484 169.97 116.653 167.998C117.164 167.194 117.748 166.172 118.552 165.003C119.282 163.98 119.136 162.592 118.26 161.716C112.051 155.434 108.618 142.286 107.668 138.414C107.449 137.319 106.426 136.661 105.331 136.807C90.7215 138.707 77.6464 140.094 64.7903 137.319C64.206 137.173 63.6217 137.319 63.1103 137.611C62.599 137.976 62.3068 138.414 62.2337 138.999C60.6998 148.714 57.2666 157.333 51.9343 164.638C50.8386 166.172 51.7152 167.852 52.7378 169.751C53.1761 170.554 53.5413 171.358 53.9065 172.234C54.2717 173.038 55.0022 173.695 55.9518 173.841C59.6041 174.426 62.3798 174.718 64.7903 174.718L64.8634 174.572ZM99.1948 169.313C93.2781 169.313 86.9962 169.751 80.8604 171.066C78.9612 171.431 77.2811 171.869 75.8202 172.234C69.6113 173.695 65.813 174.645 56.171 173.038C55.5136 172.965 54.9292 172.454 54.7101 171.869C54.3449 170.993 53.9065 170.116 53.4683 169.313C52.5187 167.486 51.7882 166.099 52.5917 164.93C57.9971 157.479 61.5033 148.787 63.0372 138.999C63.0372 138.633 63.3294 138.268 63.6216 138.049C63.9138 137.83 64.3521 137.757 64.7173 137.83C77.6464 140.679 90.7946 139.291 105.477 137.392C106.207 137.319 106.865 137.757 107.011 138.487C108.179 143.528 111.613 155.945 117.748 162.154C118.406 162.812 118.479 163.834 117.968 164.565C117.091 165.806 116.507 166.829 116.068 167.633C114.9 169.605 114.534 170.116 113.366 169.97C109.129 169.605 104.308 169.313 99.1948 169.313Z" fill="#CDCDCD"/>
<path d="M82.2483 69.7515C87.9459 69.7515 91.9634 65.807 95.4696 62.3008C96.8575 60.913 98.1723 59.6712 99.4871 58.7216C99.6332 58.5755 99.7062 58.3564 99.5601 58.2103C99.414 58.0642 99.1949 57.9911 99.0488 58.1372C97.734 59.0868 96.4192 60.4017 94.9583 61.7895C91.5252 65.1496 87.6537 69.021 82.2483 69.021C76.843 69.021 82.0292 69.021 81.8831 69.021C76.4777 68.8749 70.4149 64.8574 63.2565 56.8955C63.1104 56.7494 62.8913 56.7494 62.7452 56.8955C62.5991 57.0415 62.5991 57.2607 62.7452 57.4068C69.9767 65.5148 76.2586 69.6054 81.8831 69.7515C82.0292 69.7515 82.1753 69.7515 82.2483 69.7515Z" fill="#CDCDCD"/>
<path d="M26.9528 127.75C27.0988 127.75 27.1718 127.75 27.2449 127.604C29.6554 124.025 31.8468 122.783 34.0381 123.659C34.4764 123.878 34.6956 123.586 34.7686 123.513C35.426 122.564 32.3581 117.67 29.9476 115.113C29.8015 114.967 29.5823 114.967 29.4362 115.113C29.2901 115.259 29.2901 115.478 29.4362 115.624C31.9198 118.181 33.892 121.833 34.1842 122.929C30.8971 121.76 28.3406 124.828 26.6606 127.239C26.5145 127.385 26.6605 127.604 26.7336 127.75C26.7336 127.75 26.8797 127.75 26.9528 127.75Z" fill="#CDCDCD"/>
<path d="M57.9261 98.4341C60.4274 139.335 106.206 122.865 111.62 112.821C115.515 105.622 108.35 96.5183 93.5333 92.5481C78.7164 88.5779 57.4228 90.4345 57.9261 98.4341Z" fill="url(#paint1_linear_247_1744)"/>
<path d="M75.2073 124.159C75.5599 124.254 75.9829 124.367 76.3355 124.461C90.3988 127.541 108.53 119.387 112.027 112.823C113.389 110.28 113.481 107.396 112.26 104.62C109.94 99.1759 103.052 94.4216 93.7441 91.9276C84.4364 89.4336 65.225 89.4907 59.7837 94.0028C58.3242 95.2191 57.5506 96.6957 57.6424 98.3276C58.6577 115.974 67.4317 122.152 75.0471 124.193L75.2073 124.159ZM93.591 92.4989C102.617 94.9174 109.383 99.5624 111.6 104.825C112.719 107.421 112.613 110.072 111.379 112.42C108.323 118.184 90.5901 126.827 76.4564 123.728C68.8158 122.064 59.4142 116.254 58.3727 98.1406C58.294 96.7418 58.9396 95.4605 60.2007 94.4207C65.4436 90.085 81.3218 89.2114 93.5205 92.48L93.591 92.4989Z" fill="#CDCDCD"/>
<path d="M86.5578 71.5045C89.6257 71.5045 88.384 67.6331 86.9231 67.6331C84.0012 67.6331 84.5856 71.5045 86.5578 71.5045Z" fill="#CDCDCD"/>
<path d="M86.5579 71.7967C87.2884 71.7967 87.8727 71.5775 88.2379 71.2123C88.6031 70.8471 88.7493 70.4088 88.7493 69.8244C88.7493 68.6557 87.9458 67.2678 86.9231 67.2678C85.9005 67.2678 85.5353 67.487 85.097 67.9252C84.7318 68.2905 84.5126 68.8748 84.5126 69.4592C84.5126 70.6279 85.2431 71.7967 86.4849 71.7967H86.5579ZM86.9231 67.9252C87.5075 67.9252 88.0918 68.9479 88.0918 69.8244C88.0918 70.701 88.0918 70.4818 87.7266 70.774C87.4344 71.0662 87.0692 71.2123 86.4849 71.2123C85.6814 71.2123 85.17 70.3357 85.17 69.5322C85.17 68.7287 85.3161 68.7287 85.5352 68.4366C85.8274 68.1444 86.2657 67.9252 86.8501 67.9252H86.9231Z" fill="#CDCDCD"/>
<path d="M77.6465 70.8472C74.5786 70.8472 75.8203 66.9758 77.2812 66.9758C80.2031 66.9758 79.6187 70.8472 77.6465 70.8472Z" fill="#CDCDCD"/>
<path d="M77.6462 71.2124C78.888 71.2124 79.6185 69.9706 79.6185 68.875C79.6185 67.7793 79.3994 67.7062 79.0341 67.341C78.5959 66.9027 78.0115 66.6836 77.208 66.6836C76.4045 66.6836 75.3818 68.0715 75.3818 69.2402C75.3818 70.4089 75.528 70.2628 75.8932 70.6281C76.2584 71.0663 76.8428 71.2124 77.5732 71.2124H77.6462ZM77.281 67.268C77.8654 67.268 78.3037 67.4141 78.5959 67.7793C78.815 68.0715 78.9611 68.4367 78.9611 68.875C78.9611 69.6785 78.4497 70.555 77.6462 70.555C76.8427 70.555 76.6967 70.4089 76.4045 70.1167C76.1123 69.8246 76.0393 69.4593 76.0393 69.1671C76.0393 68.2906 76.6967 67.268 77.208 67.268H77.281Z" fill="#CDCDCD"/>
<path d="M86.1198 73.9151C88.092 78.2248 87.6537 104.302 89.1877 90.6426C90.0642 82.8997 89.699 81.2197 89.4068 79.9049C86.9963 68.2175 89.0415 67.268 85.6084 69.0211C84.7318 69.4593 84.8779 71.4316 86.0467 73.9882L86.1198 73.9151Z" fill="#FFFFFB"/>
<path d="M78.0116 73.4039C76.0393 77.7136 76.4776 103.791 74.9437 90.1313C74.0671 82.3885 74.4323 80.7084 74.7245 79.3936C77.135 67.7063 75.0898 66.7567 78.5229 68.5098C79.3995 68.9481 79.2534 70.9203 78.0847 73.4769L78.0116 73.4039Z" fill="#FFFFFB"/>
<defs>
<filter id="filter0_f_247_1744" x="0.7" y="342.7" width="154.6" height="18.6" filterUnits="userSpaceOnUse" color-interpolation-filters="sRGB">
<feFlood flood-opacity="0" result="BackgroundImageFix"/>
<feBlend mode="normal" in="SourceGraphic" in2="BackgroundImageFix" result="shape"/>
<feGaussianBlur stdDeviation="2.65" result="effect1_foregroundBlur_247_1744"/>
</filter>
<filter id="filter1_f_247_1744" x="175.7" y="338.7" width="134.6" height="22.6" filterUnits="userSpaceOnUse" color-interpolation-filters="sRGB">
<feFlood flood-opacity="0" result="BackgroundImageFix"/>
<feBlend mode="normal" in="SourceGraphic" in2="BackgroundImageFix" result="shape"/>
<feGaussianBlur stdDeviation="2.65" result="effect1_foregroundBlur_247_1744"/>
</filter>
<linearGradient id="paint0_linear_247_1744" x1="229.267" y1="151.282" x2="237.9" y2="150.858" gradientUnits="userSpaceOnUse">
<stop stop-color="#51BCFE"/>
<stop offset="0.535" stop-color="#FE5151"/>
<stop offset="1" stop-color="#FEBA51"/>
</linearGradient>
<linearGradient id="paint1_linear_247_1744" x1="106.725" y1="124.709" x2="58.7133" y2="106.841" gradientUnits="userSpaceOnUse">
<stop stop-color="#51BCFE"/>
<stop offset="0.535" stop-color="#FE5151"/>
<stop offset="1" stop-color="#FEBA51"/>
</linearGradient>
</defs>
</svg>
