<svg width="282" height="296" viewBox="0 0 282 296" fill="none" xmlns="http://www.w3.org/2000/svg">
<path fill-rule="evenodd" clip-rule="evenodd" d="M18.1454 127.423C-8.3695 118.917 -7.69088 63.6391 32.6362 46.1845C58.6607 34.9204 80.4531 46.7937 99.965 57.4245C118.247 67.3853 134.527 76.2553 150.411 63.9795C160.673 56.0485 168.902 45.8202 176.901 35.8783C194.496 14.0085 210.976 -6.47545 245.525 1.92854C295.78 14.153 285.452 50.8267 265.72 80.3819C261.867 86.1527 256.557 92.4781 250.839 99.2888C227.273 127.359 196.784 163.676 232.884 203.4C277.744 252.762 198.507 316.824 124.05 289.435C89.752 276.818 86.1037 248.352 82.2311 218.135C77.6967 182.754 72.8546 144.973 18.1454 127.423Z" fill="#F2F2F2"/>
</svg>
