<svg width="140" height="143" viewBox="0 0 140 143" fill="none" xmlns="http://www.w3.org/2000/svg">
<path d="M138.425 49.3689C139.891 59.2517 138.571 65.8339 134.261 73.0735L134.251 73.0909C134.251 73.091 134.251 73.0911 134.251 73.0912C134.249 73.0944 134.247 73.0976 134.245 73.1008C133.204 74.8437 131.799 76.3424 130.214 77.8642C129.759 78.3006 129.285 78.7426 128.802 79.1933C127.628 80.2881 126.4 81.434 125.259 82.6742C121.961 86.2584 119.215 90.8009 119.215 98.309C119.215 103.505 119.206 105.566 117.356 108.773C116.398 110.434 114.94 112.402 112.688 115.209C111.283 116.961 109.587 119.018 107.532 121.509C106.298 123.006 104.934 124.659 103.426 126.499C97.8915 133.247 89.3709 138.043 80.2794 140.383C71.2482 142.708 61.772 142.58 54.2509 139.647C50.6653 136.5 48.4292 132.025 46.2602 127.197C46.0118 126.644 45.7643 126.086 45.5155 125.526C43.5985 121.206 41.609 116.723 38.6341 113.114C37.0793 111.228 34.8959 109.762 32.4912 108.514C30.1368 107.293 27.4926 106.243 24.9047 105.216L24.7315 105.147C22.0667 104.088 19.4678 103.05 17.1885 101.843C14.9068 100.635 13.0247 99.2992 11.7531 97.6892C10.3283 95.8853 9.01902 93.2542 7.84407 90.1064C6.67389 86.9714 5.65836 83.383 4.79749 79.7072C3.07553 72.3547 1.98754 64.7186 1.51147 59.7975C1.01851 54.7019 0.71471 49.1056 1.39646 43.9199C2.07858 38.7313 3.73361 34.0609 7.06537 30.7082C10.6831 27.0677 15.776 26.4908 21.5047 26.2332C22.0783 26.2074 22.6586 26.185 23.2437 26.1623C28.3519 25.9647 33.8242 25.753 38.3559 23.1824C42.1409 21.0354 44.3835 17.0571 46.4509 13.3893C46.5042 13.2947 46.5574 13.2004 46.6105 13.1062C48.793 9.23769 50.8282 5.7561 54.1836 4.0225C61.2887 0.351605 70.0823 0.269649 77.8765 2.46172C81.5351 3.49069 84.583 5.82316 87.6622 8.52886C88.2726 9.06522 88.886 9.61819 89.5058 10.1769C91.9604 12.3899 94.5158 14.6937 97.3864 16.4159C100.502 18.2849 103.852 19.641 107.104 20.9579C107.714 21.2045 108.319 21.4498 108.92 21.6968C112.761 23.2776 116.414 24.9423 119.585 27.5141C120.765 28.4705 121.981 29.4139 123.204 30.3623C126.042 32.5629 128.914 34.79 131.437 37.2682C135.019 40.7867 137.727 44.6624 138.425 49.3689Z" fill="#51BCFE" stroke="white" stroke-width="2"/>
</svg>
